%TF.GenerationSoftware,KiCad,Pcbnew,8.0.7*%
%TF.CreationDate,2024-12-10T16:25:16+05:30*%
%TF.ProjectId,FINAL PROJECT,46494e41-4c20-4505-924f-4a4543542e6b,rev?*%
%TF.SameCoordinates,Original*%
%TF.FileFunction,Drillmap*%
%TF.FilePolarity,Positive*%
%FSLAX45Y45*%
G04 Gerber Fmt 4.5, Leading zero omitted, Abs format (unit mm)*
G04 Created by KiCad (PCBNEW 8.0.7) date 2024-12-10 16:25:16*
%MOMM*%
%LPD*%
G01*
G04 APERTURE LIST*
%ADD10C,0.050000*%
%ADD11C,0.200000*%
%ADD12C,0.100000*%
%ADD13C,0.250000*%
G04 APERTURE END LIST*
D10*
X19715000Y-12799000D02*
X10999000Y-12799000D01*
X10999000Y-6988000D02*
X19715000Y-6980000D01*
X19715000Y-12799000D02*
X19715000Y-6980000D01*
X10999000Y-6988000D02*
X10999000Y-12799000D01*
D11*
D12*
X12324500Y-7551500D02*
X12399500Y-7626500D01*
X12399500Y-7551500D02*
X12324500Y-7626500D01*
X12324500Y-7678500D02*
X12399500Y-7753500D01*
X12399500Y-7678500D02*
X12324500Y-7753500D01*
X12324500Y-7805500D02*
X12399500Y-7880500D01*
X12399500Y-7805500D02*
X12324500Y-7880500D01*
X13512500Y-7567500D02*
X13587500Y-7642500D01*
X13587500Y-7567500D02*
X13512500Y-7642500D01*
X13512500Y-7694500D02*
X13587500Y-7769500D01*
X13587500Y-7694500D02*
X13512500Y-7769500D01*
X13512500Y-7821500D02*
X13587500Y-7896500D01*
X13587500Y-7821500D02*
X13512500Y-7896500D01*
X13668500Y-9763500D02*
X13743500Y-9838500D01*
X13743500Y-9763500D02*
X13668500Y-9838500D01*
X13668500Y-9890500D02*
X13743500Y-9965500D01*
X13743500Y-9890500D02*
X13668500Y-9965500D01*
X13668500Y-10017500D02*
X13743500Y-10092500D01*
X13743500Y-10017500D02*
X13668500Y-10092500D01*
X14495500Y-9006500D02*
X14570500Y-9081500D01*
X14570500Y-9006500D02*
X14495500Y-9081500D01*
X14495500Y-9133500D02*
X14570500Y-9208500D01*
X14570500Y-9133500D02*
X14495500Y-9208500D01*
X14495500Y-9260500D02*
X14570500Y-9335500D01*
X14570500Y-9260500D02*
X14495500Y-9335500D01*
X14495500Y-9763500D02*
X14570500Y-9838500D01*
X14570500Y-9763500D02*
X14495500Y-9838500D01*
X14495500Y-9890500D02*
X14570500Y-9965500D01*
X14570500Y-9890500D02*
X14495500Y-9965500D01*
X14495500Y-10017500D02*
X14570500Y-10092500D01*
X14570500Y-10017500D02*
X14495500Y-10092500D01*
X14567500Y-7582500D02*
X14642500Y-7657500D01*
X14642500Y-7582500D02*
X14567500Y-7657500D01*
X14567500Y-7709500D02*
X14642500Y-7784500D01*
X14642500Y-7709500D02*
X14567500Y-7784500D01*
X14567500Y-7836500D02*
X14642500Y-7911500D01*
X14642500Y-7836500D02*
X14567500Y-7911500D01*
X14567500Y-8287500D02*
X14642500Y-8362500D01*
X14642500Y-8287500D02*
X14567500Y-8362500D01*
X14567500Y-8414500D02*
X14642500Y-8489500D01*
X14642500Y-8414500D02*
X14567500Y-8489500D01*
X14567500Y-8541500D02*
X14642500Y-8616500D01*
X14642500Y-8541500D02*
X14567500Y-8616500D01*
X16200500Y-8052500D02*
X16275500Y-8127500D01*
X16275500Y-8052500D02*
X16200500Y-8127500D01*
X16200500Y-8179500D02*
X16275500Y-8254500D01*
X16275500Y-8179500D02*
X16200500Y-8254500D01*
X16200500Y-8306500D02*
X16275500Y-8381500D01*
X16275500Y-8306500D02*
X16200500Y-8381500D01*
X16200500Y-8808500D02*
X16275500Y-8883500D01*
X16275500Y-8808500D02*
X16200500Y-8883500D01*
X16200500Y-8935500D02*
X16275500Y-9010500D01*
X16275500Y-8935500D02*
X16200500Y-9010500D01*
X16200500Y-9062500D02*
X16275500Y-9137500D01*
X16275500Y-9062500D02*
X16200500Y-9137500D01*
X17341500Y-8052500D02*
X17416500Y-8127500D01*
X17416500Y-8052500D02*
X17341500Y-8127500D01*
X17341500Y-8179500D02*
X17416500Y-8254500D01*
X17416500Y-8179500D02*
X17341500Y-8254500D01*
X17341500Y-8306500D02*
X17416500Y-8381500D01*
X17416500Y-8306500D02*
X17341500Y-8381500D01*
X11543370Y-9497000D02*
G75*
G02*
X11464630Y-9497000I-39370J0D01*
G01*
X11464630Y-9497000D02*
G75*
G02*
X11543370Y-9497000I39370J0D01*
G01*
X11543370Y-10259000D02*
G75*
G02*
X11464630Y-10259000I-39370J0D01*
G01*
X11464630Y-10259000D02*
G75*
G02*
X11543370Y-10259000I39370J0D01*
G01*
X11797370Y-9497000D02*
G75*
G02*
X11718630Y-9497000I-39370J0D01*
G01*
X11718630Y-9497000D02*
G75*
G02*
X11797370Y-9497000I39370J0D01*
G01*
X11797370Y-10259000D02*
G75*
G02*
X11718630Y-10259000I-39370J0D01*
G01*
X11718630Y-10259000D02*
G75*
G02*
X11797370Y-10259000I39370J0D01*
G01*
X12051370Y-9497000D02*
G75*
G02*
X11972630Y-9497000I-39370J0D01*
G01*
X11972630Y-9497000D02*
G75*
G02*
X12051370Y-9497000I39370J0D01*
G01*
X12051370Y-10259000D02*
G75*
G02*
X11972630Y-10259000I-39370J0D01*
G01*
X11972630Y-10259000D02*
G75*
G02*
X12051370Y-10259000I39370J0D01*
G01*
X12305370Y-9497000D02*
G75*
G02*
X12226630Y-9497000I-39370J0D01*
G01*
X12226630Y-9497000D02*
G75*
G02*
X12305370Y-9497000I39370J0D01*
G01*
X12305370Y-10259000D02*
G75*
G02*
X12226630Y-10259000I-39370J0D01*
G01*
X12226630Y-10259000D02*
G75*
G02*
X12305370Y-10259000I39370J0D01*
G01*
X12559370Y-9497000D02*
G75*
G02*
X12480630Y-9497000I-39370J0D01*
G01*
X12480630Y-9497000D02*
G75*
G02*
X12559370Y-9497000I39370J0D01*
G01*
X12559370Y-10259000D02*
G75*
G02*
X12480630Y-10259000I-39370J0D01*
G01*
X12480630Y-10259000D02*
G75*
G02*
X12559370Y-10259000I39370J0D01*
G01*
X12813370Y-9497000D02*
G75*
G02*
X12734630Y-9497000I-39370J0D01*
G01*
X12734630Y-9497000D02*
G75*
G02*
X12813370Y-9497000I39370J0D01*
G01*
X12813370Y-10259000D02*
G75*
G02*
X12734630Y-10259000I-39370J0D01*
G01*
X12734630Y-10259000D02*
G75*
G02*
X12813370Y-10259000I39370J0D01*
G01*
X12892870Y-10778000D02*
G75*
G02*
X12814130Y-10778000I-39370J0D01*
G01*
X12814130Y-10778000D02*
G75*
G02*
X12892870Y-10778000I39370J0D01*
G01*
X12892870Y-11032000D02*
G75*
G02*
X12814130Y-11032000I-39370J0D01*
G01*
X12814130Y-11032000D02*
G75*
G02*
X12892870Y-11032000I39370J0D01*
G01*
X12892870Y-11286000D02*
G75*
G02*
X12814130Y-11286000I-39370J0D01*
G01*
X12814130Y-11286000D02*
G75*
G02*
X12892870Y-11286000I39370J0D01*
G01*
X12892870Y-11540000D02*
G75*
G02*
X12814130Y-11540000I-39370J0D01*
G01*
X12814130Y-11540000D02*
G75*
G02*
X12892870Y-11540000I39370J0D01*
G01*
X12892870Y-11794000D02*
G75*
G02*
X12814130Y-11794000I-39370J0D01*
G01*
X12814130Y-11794000D02*
G75*
G02*
X12892870Y-11794000I39370J0D01*
G01*
X12892870Y-12048000D02*
G75*
G02*
X12814130Y-12048000I-39370J0D01*
G01*
X12814130Y-12048000D02*
G75*
G02*
X12892870Y-12048000I39370J0D01*
G01*
X12892870Y-12302000D02*
G75*
G02*
X12814130Y-12302000I-39370J0D01*
G01*
X12814130Y-12302000D02*
G75*
G02*
X12892870Y-12302000I39370J0D01*
G01*
X13067370Y-9497000D02*
G75*
G02*
X12988630Y-9497000I-39370J0D01*
G01*
X12988630Y-9497000D02*
G75*
G02*
X13067370Y-9497000I39370J0D01*
G01*
X13067370Y-10259000D02*
G75*
G02*
X12988630Y-10259000I-39370J0D01*
G01*
X12988630Y-10259000D02*
G75*
G02*
X13067370Y-10259000I39370J0D01*
G01*
X13654870Y-10778000D02*
G75*
G02*
X13576130Y-10778000I-39370J0D01*
G01*
X13576130Y-10778000D02*
G75*
G02*
X13654870Y-10778000I39370J0D01*
G01*
X13654870Y-11032000D02*
G75*
G02*
X13576130Y-11032000I-39370J0D01*
G01*
X13576130Y-11032000D02*
G75*
G02*
X13654870Y-11032000I39370J0D01*
G01*
X13654870Y-11286000D02*
G75*
G02*
X13576130Y-11286000I-39370J0D01*
G01*
X13576130Y-11286000D02*
G75*
G02*
X13654870Y-11286000I39370J0D01*
G01*
X13654870Y-11540000D02*
G75*
G02*
X13576130Y-11540000I-39370J0D01*
G01*
X13576130Y-11540000D02*
G75*
G02*
X13654870Y-11540000I39370J0D01*
G01*
X13654870Y-11794000D02*
G75*
G02*
X13576130Y-11794000I-39370J0D01*
G01*
X13576130Y-11794000D02*
G75*
G02*
X13654870Y-11794000I39370J0D01*
G01*
X13654870Y-12048000D02*
G75*
G02*
X13576130Y-12048000I-39370J0D01*
G01*
X13576130Y-12048000D02*
G75*
G02*
X13654870Y-12048000I39370J0D01*
G01*
X13654870Y-12302000D02*
G75*
G02*
X13576130Y-12302000I-39370J0D01*
G01*
X13576130Y-12302000D02*
G75*
G02*
X13654870Y-12302000I39370J0D01*
G01*
X14377370Y-10778000D02*
G75*
G02*
X14298630Y-10778000I-39370J0D01*
G01*
X14298630Y-10778000D02*
G75*
G02*
X14377370Y-10778000I39370J0D01*
G01*
X14377370Y-11032000D02*
G75*
G02*
X14298630Y-11032000I-39370J0D01*
G01*
X14298630Y-11032000D02*
G75*
G02*
X14377370Y-11032000I39370J0D01*
G01*
X14377370Y-11286000D02*
G75*
G02*
X14298630Y-11286000I-39370J0D01*
G01*
X14298630Y-11286000D02*
G75*
G02*
X14377370Y-11286000I39370J0D01*
G01*
X14377370Y-11540000D02*
G75*
G02*
X14298630Y-11540000I-39370J0D01*
G01*
X14298630Y-11540000D02*
G75*
G02*
X14377370Y-11540000I39370J0D01*
G01*
X14377370Y-11794000D02*
G75*
G02*
X14298630Y-11794000I-39370J0D01*
G01*
X14298630Y-11794000D02*
G75*
G02*
X14377370Y-11794000I39370J0D01*
G01*
X14377370Y-12048000D02*
G75*
G02*
X14298630Y-12048000I-39370J0D01*
G01*
X14298630Y-12048000D02*
G75*
G02*
X14377370Y-12048000I39370J0D01*
G01*
X14377370Y-12302000D02*
G75*
G02*
X14298630Y-12302000I-39370J0D01*
G01*
X14298630Y-12302000D02*
G75*
G02*
X14377370Y-12302000I39370J0D01*
G01*
X15139370Y-10778000D02*
G75*
G02*
X15060630Y-10778000I-39370J0D01*
G01*
X15060630Y-10778000D02*
G75*
G02*
X15139370Y-10778000I39370J0D01*
G01*
X15139370Y-11032000D02*
G75*
G02*
X15060630Y-11032000I-39370J0D01*
G01*
X15060630Y-11032000D02*
G75*
G02*
X15139370Y-11032000I39370J0D01*
G01*
X15139370Y-11286000D02*
G75*
G02*
X15060630Y-11286000I-39370J0D01*
G01*
X15060630Y-11286000D02*
G75*
G02*
X15139370Y-11286000I39370J0D01*
G01*
X15139370Y-11540000D02*
G75*
G02*
X15060630Y-11540000I-39370J0D01*
G01*
X15060630Y-11540000D02*
G75*
G02*
X15139370Y-11540000I39370J0D01*
G01*
X15139370Y-11794000D02*
G75*
G02*
X15060630Y-11794000I-39370J0D01*
G01*
X15060630Y-11794000D02*
G75*
G02*
X15139370Y-11794000I39370J0D01*
G01*
X15139370Y-12048000D02*
G75*
G02*
X15060630Y-12048000I-39370J0D01*
G01*
X15060630Y-12048000D02*
G75*
G02*
X15139370Y-12048000I39370J0D01*
G01*
X15139370Y-12302000D02*
G75*
G02*
X15060630Y-12302000I-39370J0D01*
G01*
X15060630Y-12302000D02*
G75*
G02*
X15139370Y-12302000I39370J0D01*
G01*
X15846370Y-10778000D02*
G75*
G02*
X15767630Y-10778000I-39370J0D01*
G01*
X15767630Y-10778000D02*
G75*
G02*
X15846370Y-10778000I39370J0D01*
G01*
X15846370Y-11032000D02*
G75*
G02*
X15767630Y-11032000I-39370J0D01*
G01*
X15767630Y-11032000D02*
G75*
G02*
X15846370Y-11032000I39370J0D01*
G01*
X15846370Y-11286000D02*
G75*
G02*
X15767630Y-11286000I-39370J0D01*
G01*
X15767630Y-11286000D02*
G75*
G02*
X15846370Y-11286000I39370J0D01*
G01*
X15846370Y-11540000D02*
G75*
G02*
X15767630Y-11540000I-39370J0D01*
G01*
X15767630Y-11540000D02*
G75*
G02*
X15846370Y-11540000I39370J0D01*
G01*
X15846370Y-11794000D02*
G75*
G02*
X15767630Y-11794000I-39370J0D01*
G01*
X15767630Y-11794000D02*
G75*
G02*
X15846370Y-11794000I39370J0D01*
G01*
X15846370Y-12048000D02*
G75*
G02*
X15767630Y-12048000I-39370J0D01*
G01*
X15767630Y-12048000D02*
G75*
G02*
X15846370Y-12048000I39370J0D01*
G01*
X15846370Y-12302000D02*
G75*
G02*
X15767630Y-12302000I-39370J0D01*
G01*
X15767630Y-12302000D02*
G75*
G02*
X15846370Y-12302000I39370J0D01*
G01*
X16608370Y-10778000D02*
G75*
G02*
X16529630Y-10778000I-39370J0D01*
G01*
X16529630Y-10778000D02*
G75*
G02*
X16608370Y-10778000I39370J0D01*
G01*
X16608370Y-11032000D02*
G75*
G02*
X16529630Y-11032000I-39370J0D01*
G01*
X16529630Y-11032000D02*
G75*
G02*
X16608370Y-11032000I39370J0D01*
G01*
X16608370Y-11286000D02*
G75*
G02*
X16529630Y-11286000I-39370J0D01*
G01*
X16529630Y-11286000D02*
G75*
G02*
X16608370Y-11286000I39370J0D01*
G01*
X16608370Y-11540000D02*
G75*
G02*
X16529630Y-11540000I-39370J0D01*
G01*
X16529630Y-11540000D02*
G75*
G02*
X16608370Y-11540000I39370J0D01*
G01*
X16608370Y-11794000D02*
G75*
G02*
X16529630Y-11794000I-39370J0D01*
G01*
X16529630Y-11794000D02*
G75*
G02*
X16608370Y-11794000I39370J0D01*
G01*
X16608370Y-12048000D02*
G75*
G02*
X16529630Y-12048000I-39370J0D01*
G01*
X16529630Y-12048000D02*
G75*
G02*
X16608370Y-12048000I39370J0D01*
G01*
X16608370Y-12302000D02*
G75*
G02*
X16529630Y-12302000I-39370J0D01*
G01*
X16529630Y-12302000D02*
G75*
G02*
X16608370Y-12302000I39370J0D01*
G01*
X17421370Y-10778000D02*
G75*
G02*
X17342630Y-10778000I-39370J0D01*
G01*
X17342630Y-10778000D02*
G75*
G02*
X17421370Y-10778000I39370J0D01*
G01*
X17421370Y-11032000D02*
G75*
G02*
X17342630Y-11032000I-39370J0D01*
G01*
X17342630Y-11032000D02*
G75*
G02*
X17421370Y-11032000I39370J0D01*
G01*
X17421370Y-11286000D02*
G75*
G02*
X17342630Y-11286000I-39370J0D01*
G01*
X17342630Y-11286000D02*
G75*
G02*
X17421370Y-11286000I39370J0D01*
G01*
X17421370Y-11540000D02*
G75*
G02*
X17342630Y-11540000I-39370J0D01*
G01*
X17342630Y-11540000D02*
G75*
G02*
X17421370Y-11540000I39370J0D01*
G01*
X17421370Y-11794000D02*
G75*
G02*
X17342630Y-11794000I-39370J0D01*
G01*
X17342630Y-11794000D02*
G75*
G02*
X17421370Y-11794000I39370J0D01*
G01*
X17421370Y-12048000D02*
G75*
G02*
X17342630Y-12048000I-39370J0D01*
G01*
X17342630Y-12048000D02*
G75*
G02*
X17421370Y-12048000I39370J0D01*
G01*
X17421370Y-12302000D02*
G75*
G02*
X17342630Y-12302000I-39370J0D01*
G01*
X17342630Y-12302000D02*
G75*
G02*
X17421370Y-12302000I39370J0D01*
G01*
X18183370Y-10778000D02*
G75*
G02*
X18104630Y-10778000I-39370J0D01*
G01*
X18104630Y-10778000D02*
G75*
G02*
X18183370Y-10778000I39370J0D01*
G01*
X18183370Y-11032000D02*
G75*
G02*
X18104630Y-11032000I-39370J0D01*
G01*
X18104630Y-11032000D02*
G75*
G02*
X18183370Y-11032000I39370J0D01*
G01*
X18183370Y-11286000D02*
G75*
G02*
X18104630Y-11286000I-39370J0D01*
G01*
X18104630Y-11286000D02*
G75*
G02*
X18183370Y-11286000I39370J0D01*
G01*
X18183370Y-11540000D02*
G75*
G02*
X18104630Y-11540000I-39370J0D01*
G01*
X18104630Y-11540000D02*
G75*
G02*
X18183370Y-11540000I39370J0D01*
G01*
X18183370Y-11794000D02*
G75*
G02*
X18104630Y-11794000I-39370J0D01*
G01*
X18104630Y-11794000D02*
G75*
G02*
X18183370Y-11794000I39370J0D01*
G01*
X18183370Y-12048000D02*
G75*
G02*
X18104630Y-12048000I-39370J0D01*
G01*
X18104630Y-12048000D02*
G75*
G02*
X18183370Y-12048000I39370J0D01*
G01*
X18183370Y-12302000D02*
G75*
G02*
X18104630Y-12302000I-39370J0D01*
G01*
X18104630Y-12302000D02*
G75*
G02*
X18183370Y-12302000I39370J0D01*
G01*
X12238000Y-8256000D02*
X12238000Y-8336000D01*
X12198000Y-8296000D02*
X12278000Y-8296000D01*
X12238000Y-9018000D02*
X12238000Y-9098000D01*
X12198000Y-9058000D02*
X12278000Y-9058000D01*
X12847500Y-8355000D02*
X12847500Y-8435000D01*
X12807500Y-8395000D02*
X12887500Y-8395000D01*
X12847500Y-8941000D02*
X12847500Y-9021000D01*
X12807500Y-8981000D02*
X12887500Y-8981000D01*
X13609500Y-8355000D02*
X13609500Y-8435000D01*
X13569500Y-8395000D02*
X13649500Y-8395000D01*
X13609500Y-8941000D02*
X13609500Y-9021000D01*
X13569500Y-8981000D02*
X13649500Y-8981000D01*
X15296000Y-8473000D02*
X15296000Y-8553000D01*
X15256000Y-8513000D02*
X15336000Y-8513000D01*
X15296000Y-9235000D02*
X15296000Y-9315000D01*
X15256000Y-9275000D02*
X15336000Y-9275000D01*
X15296000Y-9742000D02*
X15296000Y-9822000D01*
X15256000Y-9782000D02*
X15336000Y-9782000D01*
X15296000Y-9992000D02*
X15296000Y-10072000D01*
X15256000Y-10032000D02*
X15336000Y-10032000D01*
X16601000Y-9464000D02*
X16601000Y-9544000D01*
X16561000Y-9504000D02*
X16641000Y-9504000D01*
X16601000Y-10226000D02*
X16601000Y-10306000D01*
X16561000Y-10266000D02*
X16641000Y-10266000D01*
X17343000Y-9749000D02*
X17343000Y-9829000D01*
X17303000Y-9789000D02*
X17383000Y-9789000D01*
X17343000Y-9999000D02*
X17343000Y-10079000D01*
X17303000Y-10039000D02*
X17383000Y-10039000D01*
X17512000Y-7541000D02*
X17512000Y-7621000D01*
X17472000Y-7581000D02*
X17552000Y-7581000D01*
X18182000Y-8253000D02*
X18182000Y-8333000D01*
X18142000Y-8293000D02*
X18222000Y-8293000D01*
X18182000Y-8507000D02*
X18182000Y-8587000D01*
X18142000Y-8547000D02*
X18222000Y-8547000D01*
X18182000Y-8761000D02*
X18182000Y-8841000D01*
X18142000Y-8801000D02*
X18222000Y-8801000D01*
X18182000Y-9015000D02*
X18182000Y-9095000D01*
X18142000Y-9055000D02*
X18222000Y-9055000D01*
X18747000Y-9978000D02*
X18747000Y-10058000D01*
X18707000Y-10018000D02*
X18787000Y-10018000D01*
X18747000Y-10740000D02*
X18747000Y-10820000D01*
X18707000Y-10780000D02*
X18787000Y-10780000D01*
X18747000Y-11072000D02*
X18747000Y-11152000D01*
X18707000Y-11112000D02*
X18787000Y-11112000D01*
X18747000Y-11834000D02*
X18747000Y-11914000D01*
X18707000Y-11874000D02*
X18787000Y-11874000D01*
X18762000Y-7541000D02*
X18762000Y-7621000D01*
X18722000Y-7581000D02*
X18802000Y-7581000D01*
X18944000Y-8253000D02*
X18944000Y-8333000D01*
X18904000Y-8293000D02*
X18984000Y-8293000D01*
X18944000Y-8507000D02*
X18944000Y-8587000D01*
X18904000Y-8547000D02*
X18984000Y-8547000D01*
X18944000Y-8761000D02*
X18944000Y-8841000D01*
X18904000Y-8801000D02*
X18984000Y-8801000D01*
X18944000Y-9015000D02*
X18944000Y-9095000D01*
X18904000Y-9055000D02*
X18984000Y-9055000D01*
X15793856Y-7653356D02*
X15793856Y-7582644D01*
X15723144Y-7582644D01*
X15723144Y-7653356D01*
X15793856Y-7653356D01*
X15916356Y-9653856D02*
X15916356Y-9583144D01*
X15845644Y-9583144D01*
X15845644Y-9653856D01*
X15916356Y-9653856D01*
X15916356Y-10153856D02*
X15916356Y-10083144D01*
X15845644Y-10083144D01*
X15845644Y-10153856D01*
X15916356Y-10153856D01*
X16047856Y-7653356D02*
X16047856Y-7582644D01*
X15977144Y-7582644D01*
X15977144Y-7653356D01*
X16047856Y-7653356D01*
X16301856Y-7653356D02*
X16301856Y-7582644D01*
X16231144Y-7582644D01*
X16231144Y-7653356D01*
X16301856Y-7653356D01*
X16555856Y-7653356D02*
X16555856Y-7582644D01*
X16485144Y-7582644D01*
X16485144Y-7653356D01*
X16555856Y-7653356D01*
X16809856Y-7653356D02*
X16809856Y-7582644D01*
X16739144Y-7582644D01*
X16739144Y-7653356D01*
X16809856Y-7653356D01*
X17378356Y-8851356D02*
X17378356Y-8780644D01*
X17307644Y-8780644D01*
X17307644Y-8851356D01*
X17378356Y-8851356D01*
X17378356Y-9351356D02*
X17378356Y-9280644D01*
X17307644Y-9280644D01*
X17307644Y-9351356D01*
X17378356Y-9351356D01*
D13*
X11402000Y-7625000D02*
X11527000Y-7500000D01*
X11402000Y-7375000D01*
X11277000Y-7500000D01*
X11402000Y-7625000D01*
X11402000Y-12468000D02*
X11527000Y-12343000D01*
X11402000Y-12218000D01*
X11277000Y-12343000D01*
X11402000Y-12468000D01*
X19330000Y-7606000D02*
X19455000Y-7481000D01*
X19330000Y-7356000D01*
X19205000Y-7481000D01*
X19330000Y-7606000D01*
X19330000Y-12468000D02*
X19455000Y-12343000D01*
X19330000Y-12218000D01*
X19205000Y-12343000D01*
X19330000Y-12468000D01*
D11*
X11257277Y-13112984D02*
X11257277Y-12912984D01*
X11257277Y-12912984D02*
X11304896Y-12912984D01*
X11304896Y-12912984D02*
X11333467Y-12922508D01*
X11333467Y-12922508D02*
X11352515Y-12941555D01*
X11352515Y-12941555D02*
X11362039Y-12960603D01*
X11362039Y-12960603D02*
X11371562Y-12998698D01*
X11371562Y-12998698D02*
X11371562Y-13027269D01*
X11371562Y-13027269D02*
X11362039Y-13065365D01*
X11362039Y-13065365D02*
X11352515Y-13084412D01*
X11352515Y-13084412D02*
X11333467Y-13103460D01*
X11333467Y-13103460D02*
X11304896Y-13112984D01*
X11304896Y-13112984D02*
X11257277Y-13112984D01*
X11457277Y-13112984D02*
X11457277Y-12979650D01*
X11457277Y-13017746D02*
X11466801Y-12998698D01*
X11466801Y-12998698D02*
X11476324Y-12989174D01*
X11476324Y-12989174D02*
X11495372Y-12979650D01*
X11495372Y-12979650D02*
X11514420Y-12979650D01*
X11581086Y-13112984D02*
X11581086Y-12979650D01*
X11581086Y-12912984D02*
X11571562Y-12922508D01*
X11571562Y-12922508D02*
X11581086Y-12932031D01*
X11581086Y-12932031D02*
X11590610Y-12922508D01*
X11590610Y-12922508D02*
X11581086Y-12912984D01*
X11581086Y-12912984D02*
X11581086Y-12932031D01*
X11704896Y-13112984D02*
X11685848Y-13103460D01*
X11685848Y-13103460D02*
X11676324Y-13084412D01*
X11676324Y-13084412D02*
X11676324Y-12912984D01*
X11809658Y-13112984D02*
X11790610Y-13103460D01*
X11790610Y-13103460D02*
X11781086Y-13084412D01*
X11781086Y-13084412D02*
X11781086Y-12912984D01*
X12038229Y-13112984D02*
X12038229Y-12912984D01*
X12038229Y-12912984D02*
X12104896Y-13055841D01*
X12104896Y-13055841D02*
X12171562Y-12912984D01*
X12171562Y-12912984D02*
X12171562Y-13112984D01*
X12352515Y-13112984D02*
X12352515Y-13008222D01*
X12352515Y-13008222D02*
X12342991Y-12989174D01*
X12342991Y-12989174D02*
X12323943Y-12979650D01*
X12323943Y-12979650D02*
X12285848Y-12979650D01*
X12285848Y-12979650D02*
X12266801Y-12989174D01*
X12352515Y-13103460D02*
X12333467Y-13112984D01*
X12333467Y-13112984D02*
X12285848Y-13112984D01*
X12285848Y-13112984D02*
X12266801Y-13103460D01*
X12266801Y-13103460D02*
X12257277Y-13084412D01*
X12257277Y-13084412D02*
X12257277Y-13065365D01*
X12257277Y-13065365D02*
X12266801Y-13046317D01*
X12266801Y-13046317D02*
X12285848Y-13036793D01*
X12285848Y-13036793D02*
X12333467Y-13036793D01*
X12333467Y-13036793D02*
X12352515Y-13027269D01*
X12447753Y-12979650D02*
X12447753Y-13179650D01*
X12447753Y-12989174D02*
X12466801Y-12979650D01*
X12466801Y-12979650D02*
X12504896Y-12979650D01*
X12504896Y-12979650D02*
X12523943Y-12989174D01*
X12523943Y-12989174D02*
X12533467Y-12998698D01*
X12533467Y-12998698D02*
X12542991Y-13017746D01*
X12542991Y-13017746D02*
X12542991Y-13074888D01*
X12542991Y-13074888D02*
X12533467Y-13093936D01*
X12533467Y-13093936D02*
X12523943Y-13103460D01*
X12523943Y-13103460D02*
X12504896Y-13112984D01*
X12504896Y-13112984D02*
X12466801Y-13112984D01*
X12466801Y-13112984D02*
X12447753Y-13103460D01*
X12628705Y-13093936D02*
X12638229Y-13103460D01*
X12638229Y-13103460D02*
X12628705Y-13112984D01*
X12628705Y-13112984D02*
X12619182Y-13103460D01*
X12619182Y-13103460D02*
X12628705Y-13093936D01*
X12628705Y-13093936D02*
X12628705Y-13112984D01*
X12628705Y-12989174D02*
X12638229Y-12998698D01*
X12638229Y-12998698D02*
X12628705Y-13008222D01*
X12628705Y-13008222D02*
X12619182Y-12998698D01*
X12619182Y-12998698D02*
X12628705Y-12989174D01*
X12628705Y-12989174D02*
X12628705Y-13008222D01*
D12*
X10921500Y-13404000D02*
X10996500Y-13479000D01*
X10996500Y-13404000D02*
X10921500Y-13479000D01*
D11*
X11295372Y-13332984D02*
X11314420Y-13332984D01*
X11314420Y-13332984D02*
X11333467Y-13342508D01*
X11333467Y-13342508D02*
X11342991Y-13352031D01*
X11342991Y-13352031D02*
X11352515Y-13371079D01*
X11352515Y-13371079D02*
X11362039Y-13409174D01*
X11362039Y-13409174D02*
X11362039Y-13456793D01*
X11362039Y-13456793D02*
X11352515Y-13494888D01*
X11352515Y-13494888D02*
X11342991Y-13513936D01*
X11342991Y-13513936D02*
X11333467Y-13523460D01*
X11333467Y-13523460D02*
X11314420Y-13532984D01*
X11314420Y-13532984D02*
X11295372Y-13532984D01*
X11295372Y-13532984D02*
X11276324Y-13523460D01*
X11276324Y-13523460D02*
X11266801Y-13513936D01*
X11266801Y-13513936D02*
X11257277Y-13494888D01*
X11257277Y-13494888D02*
X11247753Y-13456793D01*
X11247753Y-13456793D02*
X11247753Y-13409174D01*
X11247753Y-13409174D02*
X11257277Y-13371079D01*
X11257277Y-13371079D02*
X11266801Y-13352031D01*
X11266801Y-13352031D02*
X11276324Y-13342508D01*
X11276324Y-13342508D02*
X11295372Y-13332984D01*
X11447753Y-13513936D02*
X11457277Y-13523460D01*
X11457277Y-13523460D02*
X11447753Y-13532984D01*
X11447753Y-13532984D02*
X11438229Y-13523460D01*
X11438229Y-13523460D02*
X11447753Y-13513936D01*
X11447753Y-13513936D02*
X11447753Y-13532984D01*
X11523943Y-13332984D02*
X11657277Y-13332984D01*
X11657277Y-13332984D02*
X11571562Y-13532984D01*
X11828705Y-13332984D02*
X11733467Y-13332984D01*
X11733467Y-13332984D02*
X11723943Y-13428222D01*
X11723943Y-13428222D02*
X11733467Y-13418698D01*
X11733467Y-13418698D02*
X11752515Y-13409174D01*
X11752515Y-13409174D02*
X11800134Y-13409174D01*
X11800134Y-13409174D02*
X11819182Y-13418698D01*
X11819182Y-13418698D02*
X11828705Y-13428222D01*
X11828705Y-13428222D02*
X11838229Y-13447269D01*
X11838229Y-13447269D02*
X11838229Y-13494888D01*
X11838229Y-13494888D02*
X11828705Y-13513936D01*
X11828705Y-13513936D02*
X11819182Y-13523460D01*
X11819182Y-13523460D02*
X11800134Y-13532984D01*
X11800134Y-13532984D02*
X11752515Y-13532984D01*
X11752515Y-13532984D02*
X11733467Y-13523460D01*
X11733467Y-13523460D02*
X11723943Y-13513936D01*
X11962039Y-13332984D02*
X11981086Y-13332984D01*
X11981086Y-13332984D02*
X12000134Y-13342508D01*
X12000134Y-13342508D02*
X12009658Y-13352031D01*
X12009658Y-13352031D02*
X12019182Y-13371079D01*
X12019182Y-13371079D02*
X12028705Y-13409174D01*
X12028705Y-13409174D02*
X12028705Y-13456793D01*
X12028705Y-13456793D02*
X12019182Y-13494888D01*
X12019182Y-13494888D02*
X12009658Y-13513936D01*
X12009658Y-13513936D02*
X12000134Y-13523460D01*
X12000134Y-13523460D02*
X11981086Y-13532984D01*
X11981086Y-13532984D02*
X11962039Y-13532984D01*
X11962039Y-13532984D02*
X11942991Y-13523460D01*
X11942991Y-13523460D02*
X11933467Y-13513936D01*
X11933467Y-13513936D02*
X11923943Y-13494888D01*
X11923943Y-13494888D02*
X11914420Y-13456793D01*
X11914420Y-13456793D02*
X11914420Y-13409174D01*
X11914420Y-13409174D02*
X11923943Y-13371079D01*
X11923943Y-13371079D02*
X11933467Y-13352031D01*
X11933467Y-13352031D02*
X11942991Y-13342508D01*
X11942991Y-13342508D02*
X11962039Y-13332984D01*
X12114420Y-13532984D02*
X12114420Y-13399650D01*
X12114420Y-13418698D02*
X12123943Y-13409174D01*
X12123943Y-13409174D02*
X12142991Y-13399650D01*
X12142991Y-13399650D02*
X12171563Y-13399650D01*
X12171563Y-13399650D02*
X12190610Y-13409174D01*
X12190610Y-13409174D02*
X12200134Y-13428222D01*
X12200134Y-13428222D02*
X12200134Y-13532984D01*
X12200134Y-13428222D02*
X12209658Y-13409174D01*
X12209658Y-13409174D02*
X12228705Y-13399650D01*
X12228705Y-13399650D02*
X12257277Y-13399650D01*
X12257277Y-13399650D02*
X12276324Y-13409174D01*
X12276324Y-13409174D02*
X12285848Y-13428222D01*
X12285848Y-13428222D02*
X12285848Y-13532984D01*
X12381086Y-13532984D02*
X12381086Y-13399650D01*
X12381086Y-13418698D02*
X12390610Y-13409174D01*
X12390610Y-13409174D02*
X12409658Y-13399650D01*
X12409658Y-13399650D02*
X12438229Y-13399650D01*
X12438229Y-13399650D02*
X12457277Y-13409174D01*
X12457277Y-13409174D02*
X12466801Y-13428222D01*
X12466801Y-13428222D02*
X12466801Y-13532984D01*
X12466801Y-13428222D02*
X12476324Y-13409174D01*
X12476324Y-13409174D02*
X12495372Y-13399650D01*
X12495372Y-13399650D02*
X12523943Y-13399650D01*
X12523943Y-13399650D02*
X12542991Y-13409174D01*
X12542991Y-13409174D02*
X12552515Y-13428222D01*
X12552515Y-13428222D02*
X12552515Y-13532984D01*
X12942991Y-13323460D02*
X12771563Y-13580603D01*
X13200134Y-13332984D02*
X13219182Y-13332984D01*
X13219182Y-13332984D02*
X13238229Y-13342508D01*
X13238229Y-13342508D02*
X13247753Y-13352031D01*
X13247753Y-13352031D02*
X13257277Y-13371079D01*
X13257277Y-13371079D02*
X13266801Y-13409174D01*
X13266801Y-13409174D02*
X13266801Y-13456793D01*
X13266801Y-13456793D02*
X13257277Y-13494888D01*
X13257277Y-13494888D02*
X13247753Y-13513936D01*
X13247753Y-13513936D02*
X13238229Y-13523460D01*
X13238229Y-13523460D02*
X13219182Y-13532984D01*
X13219182Y-13532984D02*
X13200134Y-13532984D01*
X13200134Y-13532984D02*
X13181086Y-13523460D01*
X13181086Y-13523460D02*
X13171563Y-13513936D01*
X13171563Y-13513936D02*
X13162039Y-13494888D01*
X13162039Y-13494888D02*
X13152515Y-13456793D01*
X13152515Y-13456793D02*
X13152515Y-13409174D01*
X13152515Y-13409174D02*
X13162039Y-13371079D01*
X13162039Y-13371079D02*
X13171563Y-13352031D01*
X13171563Y-13352031D02*
X13181086Y-13342508D01*
X13181086Y-13342508D02*
X13200134Y-13332984D01*
X13352515Y-13513936D02*
X13362039Y-13523460D01*
X13362039Y-13523460D02*
X13352515Y-13532984D01*
X13352515Y-13532984D02*
X13342991Y-13523460D01*
X13342991Y-13523460D02*
X13352515Y-13513936D01*
X13352515Y-13513936D02*
X13352515Y-13532984D01*
X13485848Y-13332984D02*
X13504896Y-13332984D01*
X13504896Y-13332984D02*
X13523944Y-13342508D01*
X13523944Y-13342508D02*
X13533467Y-13352031D01*
X13533467Y-13352031D02*
X13542991Y-13371079D01*
X13542991Y-13371079D02*
X13552515Y-13409174D01*
X13552515Y-13409174D02*
X13552515Y-13456793D01*
X13552515Y-13456793D02*
X13542991Y-13494888D01*
X13542991Y-13494888D02*
X13533467Y-13513936D01*
X13533467Y-13513936D02*
X13523944Y-13523460D01*
X13523944Y-13523460D02*
X13504896Y-13532984D01*
X13504896Y-13532984D02*
X13485848Y-13532984D01*
X13485848Y-13532984D02*
X13466801Y-13523460D01*
X13466801Y-13523460D02*
X13457277Y-13513936D01*
X13457277Y-13513936D02*
X13447753Y-13494888D01*
X13447753Y-13494888D02*
X13438229Y-13456793D01*
X13438229Y-13456793D02*
X13438229Y-13409174D01*
X13438229Y-13409174D02*
X13447753Y-13371079D01*
X13447753Y-13371079D02*
X13457277Y-13352031D01*
X13457277Y-13352031D02*
X13466801Y-13342508D01*
X13466801Y-13342508D02*
X13485848Y-13332984D01*
X13628706Y-13352031D02*
X13638229Y-13342508D01*
X13638229Y-13342508D02*
X13657277Y-13332984D01*
X13657277Y-13332984D02*
X13704896Y-13332984D01*
X13704896Y-13332984D02*
X13723944Y-13342508D01*
X13723944Y-13342508D02*
X13733467Y-13352031D01*
X13733467Y-13352031D02*
X13742991Y-13371079D01*
X13742991Y-13371079D02*
X13742991Y-13390127D01*
X13742991Y-13390127D02*
X13733467Y-13418698D01*
X13733467Y-13418698D02*
X13619182Y-13532984D01*
X13619182Y-13532984D02*
X13742991Y-13532984D01*
X13838229Y-13532984D02*
X13876325Y-13532984D01*
X13876325Y-13532984D02*
X13895372Y-13523460D01*
X13895372Y-13523460D02*
X13904896Y-13513936D01*
X13904896Y-13513936D02*
X13923944Y-13485365D01*
X13923944Y-13485365D02*
X13933467Y-13447269D01*
X13933467Y-13447269D02*
X13933467Y-13371079D01*
X13933467Y-13371079D02*
X13923944Y-13352031D01*
X13923944Y-13352031D02*
X13914420Y-13342508D01*
X13914420Y-13342508D02*
X13895372Y-13332984D01*
X13895372Y-13332984D02*
X13857277Y-13332984D01*
X13857277Y-13332984D02*
X13838229Y-13342508D01*
X13838229Y-13342508D02*
X13828706Y-13352031D01*
X13828706Y-13352031D02*
X13819182Y-13371079D01*
X13819182Y-13371079D02*
X13819182Y-13418698D01*
X13819182Y-13418698D02*
X13828706Y-13437746D01*
X13828706Y-13437746D02*
X13838229Y-13447269D01*
X13838229Y-13447269D02*
X13857277Y-13456793D01*
X13857277Y-13456793D02*
X13895372Y-13456793D01*
X13895372Y-13456793D02*
X13914420Y-13447269D01*
X13914420Y-13447269D02*
X13923944Y-13437746D01*
X13923944Y-13437746D02*
X13933467Y-13418698D01*
X14114420Y-13332984D02*
X14019182Y-13332984D01*
X14019182Y-13332984D02*
X14009658Y-13428222D01*
X14009658Y-13428222D02*
X14019182Y-13418698D01*
X14019182Y-13418698D02*
X14038229Y-13409174D01*
X14038229Y-13409174D02*
X14085848Y-13409174D01*
X14085848Y-13409174D02*
X14104896Y-13418698D01*
X14104896Y-13418698D02*
X14114420Y-13428222D01*
X14114420Y-13428222D02*
X14123944Y-13447269D01*
X14123944Y-13447269D02*
X14123944Y-13494888D01*
X14123944Y-13494888D02*
X14114420Y-13513936D01*
X14114420Y-13513936D02*
X14104896Y-13523460D01*
X14104896Y-13523460D02*
X14085848Y-13532984D01*
X14085848Y-13532984D02*
X14038229Y-13532984D01*
X14038229Y-13532984D02*
X14019182Y-13523460D01*
X14019182Y-13523460D02*
X14009658Y-13513936D01*
X14200134Y-13332984D02*
X14200134Y-13371079D01*
X14276325Y-13332984D02*
X14276325Y-13371079D01*
X14571563Y-13609174D02*
X14562039Y-13599650D01*
X14562039Y-13599650D02*
X14542991Y-13571079D01*
X14542991Y-13571079D02*
X14533468Y-13552031D01*
X14533468Y-13552031D02*
X14523944Y-13523460D01*
X14523944Y-13523460D02*
X14514420Y-13475841D01*
X14514420Y-13475841D02*
X14514420Y-13437746D01*
X14514420Y-13437746D02*
X14523944Y-13390127D01*
X14523944Y-13390127D02*
X14533468Y-13361555D01*
X14533468Y-13361555D02*
X14542991Y-13342508D01*
X14542991Y-13342508D02*
X14562039Y-13313936D01*
X14562039Y-13313936D02*
X14571563Y-13304412D01*
X14628706Y-13332984D02*
X14752515Y-13332984D01*
X14752515Y-13332984D02*
X14685848Y-13409174D01*
X14685848Y-13409174D02*
X14714420Y-13409174D01*
X14714420Y-13409174D02*
X14733468Y-13418698D01*
X14733468Y-13418698D02*
X14742991Y-13428222D01*
X14742991Y-13428222D02*
X14752515Y-13447269D01*
X14752515Y-13447269D02*
X14752515Y-13494888D01*
X14752515Y-13494888D02*
X14742991Y-13513936D01*
X14742991Y-13513936D02*
X14733468Y-13523460D01*
X14733468Y-13523460D02*
X14714420Y-13532984D01*
X14714420Y-13532984D02*
X14657277Y-13532984D01*
X14657277Y-13532984D02*
X14638229Y-13523460D01*
X14638229Y-13523460D02*
X14628706Y-13513936D01*
X14876325Y-13332984D02*
X14895372Y-13332984D01*
X14895372Y-13332984D02*
X14914420Y-13342508D01*
X14914420Y-13342508D02*
X14923944Y-13352031D01*
X14923944Y-13352031D02*
X14933468Y-13371079D01*
X14933468Y-13371079D02*
X14942991Y-13409174D01*
X14942991Y-13409174D02*
X14942991Y-13456793D01*
X14942991Y-13456793D02*
X14933468Y-13494888D01*
X14933468Y-13494888D02*
X14923944Y-13513936D01*
X14923944Y-13513936D02*
X14914420Y-13523460D01*
X14914420Y-13523460D02*
X14895372Y-13532984D01*
X14895372Y-13532984D02*
X14876325Y-13532984D01*
X14876325Y-13532984D02*
X14857277Y-13523460D01*
X14857277Y-13523460D02*
X14847753Y-13513936D01*
X14847753Y-13513936D02*
X14838229Y-13494888D01*
X14838229Y-13494888D02*
X14828706Y-13456793D01*
X14828706Y-13456793D02*
X14828706Y-13409174D01*
X14828706Y-13409174D02*
X14838229Y-13371079D01*
X14838229Y-13371079D02*
X14847753Y-13352031D01*
X14847753Y-13352031D02*
X14857277Y-13342508D01*
X14857277Y-13342508D02*
X14876325Y-13332984D01*
X15181087Y-13532984D02*
X15181087Y-13332984D01*
X15266801Y-13532984D02*
X15266801Y-13428222D01*
X15266801Y-13428222D02*
X15257277Y-13409174D01*
X15257277Y-13409174D02*
X15238230Y-13399650D01*
X15238230Y-13399650D02*
X15209658Y-13399650D01*
X15209658Y-13399650D02*
X15190610Y-13409174D01*
X15190610Y-13409174D02*
X15181087Y-13418698D01*
X15390610Y-13532984D02*
X15371563Y-13523460D01*
X15371563Y-13523460D02*
X15362039Y-13513936D01*
X15362039Y-13513936D02*
X15352515Y-13494888D01*
X15352515Y-13494888D02*
X15352515Y-13437746D01*
X15352515Y-13437746D02*
X15362039Y-13418698D01*
X15362039Y-13418698D02*
X15371563Y-13409174D01*
X15371563Y-13409174D02*
X15390610Y-13399650D01*
X15390610Y-13399650D02*
X15419182Y-13399650D01*
X15419182Y-13399650D02*
X15438230Y-13409174D01*
X15438230Y-13409174D02*
X15447753Y-13418698D01*
X15447753Y-13418698D02*
X15457277Y-13437746D01*
X15457277Y-13437746D02*
X15457277Y-13494888D01*
X15457277Y-13494888D02*
X15447753Y-13513936D01*
X15447753Y-13513936D02*
X15438230Y-13523460D01*
X15438230Y-13523460D02*
X15419182Y-13532984D01*
X15419182Y-13532984D02*
X15390610Y-13532984D01*
X15571563Y-13532984D02*
X15552515Y-13523460D01*
X15552515Y-13523460D02*
X15542991Y-13504412D01*
X15542991Y-13504412D02*
X15542991Y-13332984D01*
X15723944Y-13523460D02*
X15704896Y-13532984D01*
X15704896Y-13532984D02*
X15666801Y-13532984D01*
X15666801Y-13532984D02*
X15647753Y-13523460D01*
X15647753Y-13523460D02*
X15638230Y-13504412D01*
X15638230Y-13504412D02*
X15638230Y-13428222D01*
X15638230Y-13428222D02*
X15647753Y-13409174D01*
X15647753Y-13409174D02*
X15666801Y-13399650D01*
X15666801Y-13399650D02*
X15704896Y-13399650D01*
X15704896Y-13399650D02*
X15723944Y-13409174D01*
X15723944Y-13409174D02*
X15733468Y-13428222D01*
X15733468Y-13428222D02*
X15733468Y-13447269D01*
X15733468Y-13447269D02*
X15638230Y-13466317D01*
X15809658Y-13523460D02*
X15828706Y-13532984D01*
X15828706Y-13532984D02*
X15866801Y-13532984D01*
X15866801Y-13532984D02*
X15885849Y-13523460D01*
X15885849Y-13523460D02*
X15895372Y-13504412D01*
X15895372Y-13504412D02*
X15895372Y-13494888D01*
X15895372Y-13494888D02*
X15885849Y-13475841D01*
X15885849Y-13475841D02*
X15866801Y-13466317D01*
X15866801Y-13466317D02*
X15838230Y-13466317D01*
X15838230Y-13466317D02*
X15819182Y-13456793D01*
X15819182Y-13456793D02*
X15809658Y-13437746D01*
X15809658Y-13437746D02*
X15809658Y-13428222D01*
X15809658Y-13428222D02*
X15819182Y-13409174D01*
X15819182Y-13409174D02*
X15838230Y-13399650D01*
X15838230Y-13399650D02*
X15866801Y-13399650D01*
X15866801Y-13399650D02*
X15885849Y-13409174D01*
X15962039Y-13609174D02*
X15971563Y-13599650D01*
X15971563Y-13599650D02*
X15990611Y-13571079D01*
X15990611Y-13571079D02*
X16000134Y-13552031D01*
X16000134Y-13552031D02*
X16009658Y-13523460D01*
X16009658Y-13523460D02*
X16019182Y-13475841D01*
X16019182Y-13475841D02*
X16019182Y-13437746D01*
X16019182Y-13437746D02*
X16009658Y-13390127D01*
X16009658Y-13390127D02*
X16000134Y-13361555D01*
X16000134Y-13361555D02*
X15990611Y-13342508D01*
X15990611Y-13342508D02*
X15971563Y-13313936D01*
X15971563Y-13313936D02*
X15962039Y-13304412D01*
D12*
X10996500Y-13705500D02*
G75*
G02*
X10917760Y-13705500I-39370J0D01*
G01*
X10917760Y-13705500D02*
G75*
G02*
X10996500Y-13705500I39370J0D01*
G01*
D11*
X11295372Y-13596984D02*
X11314420Y-13596984D01*
X11314420Y-13596984D02*
X11333467Y-13606508D01*
X11333467Y-13606508D02*
X11342991Y-13616031D01*
X11342991Y-13616031D02*
X11352515Y-13635079D01*
X11352515Y-13635079D02*
X11362039Y-13673174D01*
X11362039Y-13673174D02*
X11362039Y-13720793D01*
X11362039Y-13720793D02*
X11352515Y-13758888D01*
X11352515Y-13758888D02*
X11342991Y-13777936D01*
X11342991Y-13777936D02*
X11333467Y-13787460D01*
X11333467Y-13787460D02*
X11314420Y-13796984D01*
X11314420Y-13796984D02*
X11295372Y-13796984D01*
X11295372Y-13796984D02*
X11276324Y-13787460D01*
X11276324Y-13787460D02*
X11266801Y-13777936D01*
X11266801Y-13777936D02*
X11257277Y-13758888D01*
X11257277Y-13758888D02*
X11247753Y-13720793D01*
X11247753Y-13720793D02*
X11247753Y-13673174D01*
X11247753Y-13673174D02*
X11257277Y-13635079D01*
X11257277Y-13635079D02*
X11266801Y-13616031D01*
X11266801Y-13616031D02*
X11276324Y-13606508D01*
X11276324Y-13606508D02*
X11295372Y-13596984D01*
X11447753Y-13777936D02*
X11457277Y-13787460D01*
X11457277Y-13787460D02*
X11447753Y-13796984D01*
X11447753Y-13796984D02*
X11438229Y-13787460D01*
X11438229Y-13787460D02*
X11447753Y-13777936D01*
X11447753Y-13777936D02*
X11447753Y-13796984D01*
X11523943Y-13596984D02*
X11657277Y-13596984D01*
X11657277Y-13596984D02*
X11571562Y-13796984D01*
X11762039Y-13682698D02*
X11742991Y-13673174D01*
X11742991Y-13673174D02*
X11733467Y-13663650D01*
X11733467Y-13663650D02*
X11723943Y-13644603D01*
X11723943Y-13644603D02*
X11723943Y-13635079D01*
X11723943Y-13635079D02*
X11733467Y-13616031D01*
X11733467Y-13616031D02*
X11742991Y-13606508D01*
X11742991Y-13606508D02*
X11762039Y-13596984D01*
X11762039Y-13596984D02*
X11800134Y-13596984D01*
X11800134Y-13596984D02*
X11819182Y-13606508D01*
X11819182Y-13606508D02*
X11828705Y-13616031D01*
X11828705Y-13616031D02*
X11838229Y-13635079D01*
X11838229Y-13635079D02*
X11838229Y-13644603D01*
X11838229Y-13644603D02*
X11828705Y-13663650D01*
X11828705Y-13663650D02*
X11819182Y-13673174D01*
X11819182Y-13673174D02*
X11800134Y-13682698D01*
X11800134Y-13682698D02*
X11762039Y-13682698D01*
X11762039Y-13682698D02*
X11742991Y-13692222D01*
X11742991Y-13692222D02*
X11733467Y-13701746D01*
X11733467Y-13701746D02*
X11723943Y-13720793D01*
X11723943Y-13720793D02*
X11723943Y-13758888D01*
X11723943Y-13758888D02*
X11733467Y-13777936D01*
X11733467Y-13777936D02*
X11742991Y-13787460D01*
X11742991Y-13787460D02*
X11762039Y-13796984D01*
X11762039Y-13796984D02*
X11800134Y-13796984D01*
X11800134Y-13796984D02*
X11819182Y-13787460D01*
X11819182Y-13787460D02*
X11828705Y-13777936D01*
X11828705Y-13777936D02*
X11838229Y-13758888D01*
X11838229Y-13758888D02*
X11838229Y-13720793D01*
X11838229Y-13720793D02*
X11828705Y-13701746D01*
X11828705Y-13701746D02*
X11819182Y-13692222D01*
X11819182Y-13692222D02*
X11800134Y-13682698D01*
X11904896Y-13596984D02*
X12038229Y-13596984D01*
X12038229Y-13596984D02*
X11952515Y-13796984D01*
X12114420Y-13796984D02*
X12114420Y-13663650D01*
X12114420Y-13682698D02*
X12123943Y-13673174D01*
X12123943Y-13673174D02*
X12142991Y-13663650D01*
X12142991Y-13663650D02*
X12171563Y-13663650D01*
X12171563Y-13663650D02*
X12190610Y-13673174D01*
X12190610Y-13673174D02*
X12200134Y-13692222D01*
X12200134Y-13692222D02*
X12200134Y-13796984D01*
X12200134Y-13692222D02*
X12209658Y-13673174D01*
X12209658Y-13673174D02*
X12228705Y-13663650D01*
X12228705Y-13663650D02*
X12257277Y-13663650D01*
X12257277Y-13663650D02*
X12276324Y-13673174D01*
X12276324Y-13673174D02*
X12285848Y-13692222D01*
X12285848Y-13692222D02*
X12285848Y-13796984D01*
X12381086Y-13796984D02*
X12381086Y-13663650D01*
X12381086Y-13682698D02*
X12390610Y-13673174D01*
X12390610Y-13673174D02*
X12409658Y-13663650D01*
X12409658Y-13663650D02*
X12438229Y-13663650D01*
X12438229Y-13663650D02*
X12457277Y-13673174D01*
X12457277Y-13673174D02*
X12466801Y-13692222D01*
X12466801Y-13692222D02*
X12466801Y-13796984D01*
X12466801Y-13692222D02*
X12476324Y-13673174D01*
X12476324Y-13673174D02*
X12495372Y-13663650D01*
X12495372Y-13663650D02*
X12523943Y-13663650D01*
X12523943Y-13663650D02*
X12542991Y-13673174D01*
X12542991Y-13673174D02*
X12552515Y-13692222D01*
X12552515Y-13692222D02*
X12552515Y-13796984D01*
X12942991Y-13587460D02*
X12771563Y-13844603D01*
X13200134Y-13596984D02*
X13219182Y-13596984D01*
X13219182Y-13596984D02*
X13238229Y-13606508D01*
X13238229Y-13606508D02*
X13247753Y-13616031D01*
X13247753Y-13616031D02*
X13257277Y-13635079D01*
X13257277Y-13635079D02*
X13266801Y-13673174D01*
X13266801Y-13673174D02*
X13266801Y-13720793D01*
X13266801Y-13720793D02*
X13257277Y-13758888D01*
X13257277Y-13758888D02*
X13247753Y-13777936D01*
X13247753Y-13777936D02*
X13238229Y-13787460D01*
X13238229Y-13787460D02*
X13219182Y-13796984D01*
X13219182Y-13796984D02*
X13200134Y-13796984D01*
X13200134Y-13796984D02*
X13181086Y-13787460D01*
X13181086Y-13787460D02*
X13171563Y-13777936D01*
X13171563Y-13777936D02*
X13162039Y-13758888D01*
X13162039Y-13758888D02*
X13152515Y-13720793D01*
X13152515Y-13720793D02*
X13152515Y-13673174D01*
X13152515Y-13673174D02*
X13162039Y-13635079D01*
X13162039Y-13635079D02*
X13171563Y-13616031D01*
X13171563Y-13616031D02*
X13181086Y-13606508D01*
X13181086Y-13606508D02*
X13200134Y-13596984D01*
X13352515Y-13777936D02*
X13362039Y-13787460D01*
X13362039Y-13787460D02*
X13352515Y-13796984D01*
X13352515Y-13796984D02*
X13342991Y-13787460D01*
X13342991Y-13787460D02*
X13352515Y-13777936D01*
X13352515Y-13777936D02*
X13352515Y-13796984D01*
X13485848Y-13596984D02*
X13504896Y-13596984D01*
X13504896Y-13596984D02*
X13523944Y-13606508D01*
X13523944Y-13606508D02*
X13533467Y-13616031D01*
X13533467Y-13616031D02*
X13542991Y-13635079D01*
X13542991Y-13635079D02*
X13552515Y-13673174D01*
X13552515Y-13673174D02*
X13552515Y-13720793D01*
X13552515Y-13720793D02*
X13542991Y-13758888D01*
X13542991Y-13758888D02*
X13533467Y-13777936D01*
X13533467Y-13777936D02*
X13523944Y-13787460D01*
X13523944Y-13787460D02*
X13504896Y-13796984D01*
X13504896Y-13796984D02*
X13485848Y-13796984D01*
X13485848Y-13796984D02*
X13466801Y-13787460D01*
X13466801Y-13787460D02*
X13457277Y-13777936D01*
X13457277Y-13777936D02*
X13447753Y-13758888D01*
X13447753Y-13758888D02*
X13438229Y-13720793D01*
X13438229Y-13720793D02*
X13438229Y-13673174D01*
X13438229Y-13673174D02*
X13447753Y-13635079D01*
X13447753Y-13635079D02*
X13457277Y-13616031D01*
X13457277Y-13616031D02*
X13466801Y-13606508D01*
X13466801Y-13606508D02*
X13485848Y-13596984D01*
X13619182Y-13596984D02*
X13742991Y-13596984D01*
X13742991Y-13596984D02*
X13676325Y-13673174D01*
X13676325Y-13673174D02*
X13704896Y-13673174D01*
X13704896Y-13673174D02*
X13723944Y-13682698D01*
X13723944Y-13682698D02*
X13733467Y-13692222D01*
X13733467Y-13692222D02*
X13742991Y-13711269D01*
X13742991Y-13711269D02*
X13742991Y-13758888D01*
X13742991Y-13758888D02*
X13733467Y-13777936D01*
X13733467Y-13777936D02*
X13723944Y-13787460D01*
X13723944Y-13787460D02*
X13704896Y-13796984D01*
X13704896Y-13796984D02*
X13647753Y-13796984D01*
X13647753Y-13796984D02*
X13628706Y-13787460D01*
X13628706Y-13787460D02*
X13619182Y-13777936D01*
X13933467Y-13796984D02*
X13819182Y-13796984D01*
X13876325Y-13796984D02*
X13876325Y-13596984D01*
X13876325Y-13596984D02*
X13857277Y-13625555D01*
X13857277Y-13625555D02*
X13838229Y-13644603D01*
X13838229Y-13644603D02*
X13819182Y-13654127D01*
X14057277Y-13596984D02*
X14076325Y-13596984D01*
X14076325Y-13596984D02*
X14095372Y-13606508D01*
X14095372Y-13606508D02*
X14104896Y-13616031D01*
X14104896Y-13616031D02*
X14114420Y-13635079D01*
X14114420Y-13635079D02*
X14123944Y-13673174D01*
X14123944Y-13673174D02*
X14123944Y-13720793D01*
X14123944Y-13720793D02*
X14114420Y-13758888D01*
X14114420Y-13758888D02*
X14104896Y-13777936D01*
X14104896Y-13777936D02*
X14095372Y-13787460D01*
X14095372Y-13787460D02*
X14076325Y-13796984D01*
X14076325Y-13796984D02*
X14057277Y-13796984D01*
X14057277Y-13796984D02*
X14038229Y-13787460D01*
X14038229Y-13787460D02*
X14028706Y-13777936D01*
X14028706Y-13777936D02*
X14019182Y-13758888D01*
X14019182Y-13758888D02*
X14009658Y-13720793D01*
X14009658Y-13720793D02*
X14009658Y-13673174D01*
X14009658Y-13673174D02*
X14019182Y-13635079D01*
X14019182Y-13635079D02*
X14028706Y-13616031D01*
X14028706Y-13616031D02*
X14038229Y-13606508D01*
X14038229Y-13606508D02*
X14057277Y-13596984D01*
X14200134Y-13596984D02*
X14200134Y-13635079D01*
X14276325Y-13596984D02*
X14276325Y-13635079D01*
X14571563Y-13873174D02*
X14562039Y-13863650D01*
X14562039Y-13863650D02*
X14542991Y-13835079D01*
X14542991Y-13835079D02*
X14533468Y-13816031D01*
X14533468Y-13816031D02*
X14523944Y-13787460D01*
X14523944Y-13787460D02*
X14514420Y-13739841D01*
X14514420Y-13739841D02*
X14514420Y-13701746D01*
X14514420Y-13701746D02*
X14523944Y-13654127D01*
X14523944Y-13654127D02*
X14533468Y-13625555D01*
X14533468Y-13625555D02*
X14542991Y-13606508D01*
X14542991Y-13606508D02*
X14562039Y-13577936D01*
X14562039Y-13577936D02*
X14571563Y-13568412D01*
X14628706Y-13596984D02*
X14762039Y-13596984D01*
X14762039Y-13596984D02*
X14676325Y-13796984D01*
X14876325Y-13596984D02*
X14895372Y-13596984D01*
X14895372Y-13596984D02*
X14914420Y-13606508D01*
X14914420Y-13606508D02*
X14923944Y-13616031D01*
X14923944Y-13616031D02*
X14933468Y-13635079D01*
X14933468Y-13635079D02*
X14942991Y-13673174D01*
X14942991Y-13673174D02*
X14942991Y-13720793D01*
X14942991Y-13720793D02*
X14933468Y-13758888D01*
X14933468Y-13758888D02*
X14923944Y-13777936D01*
X14923944Y-13777936D02*
X14914420Y-13787460D01*
X14914420Y-13787460D02*
X14895372Y-13796984D01*
X14895372Y-13796984D02*
X14876325Y-13796984D01*
X14876325Y-13796984D02*
X14857277Y-13787460D01*
X14857277Y-13787460D02*
X14847753Y-13777936D01*
X14847753Y-13777936D02*
X14838229Y-13758888D01*
X14838229Y-13758888D02*
X14828706Y-13720793D01*
X14828706Y-13720793D02*
X14828706Y-13673174D01*
X14828706Y-13673174D02*
X14838229Y-13635079D01*
X14838229Y-13635079D02*
X14847753Y-13616031D01*
X14847753Y-13616031D02*
X14857277Y-13606508D01*
X14857277Y-13606508D02*
X14876325Y-13596984D01*
X15181087Y-13796984D02*
X15181087Y-13596984D01*
X15266801Y-13796984D02*
X15266801Y-13692222D01*
X15266801Y-13692222D02*
X15257277Y-13673174D01*
X15257277Y-13673174D02*
X15238230Y-13663650D01*
X15238230Y-13663650D02*
X15209658Y-13663650D01*
X15209658Y-13663650D02*
X15190610Y-13673174D01*
X15190610Y-13673174D02*
X15181087Y-13682698D01*
X15390610Y-13796984D02*
X15371563Y-13787460D01*
X15371563Y-13787460D02*
X15362039Y-13777936D01*
X15362039Y-13777936D02*
X15352515Y-13758888D01*
X15352515Y-13758888D02*
X15352515Y-13701746D01*
X15352515Y-13701746D02*
X15362039Y-13682698D01*
X15362039Y-13682698D02*
X15371563Y-13673174D01*
X15371563Y-13673174D02*
X15390610Y-13663650D01*
X15390610Y-13663650D02*
X15419182Y-13663650D01*
X15419182Y-13663650D02*
X15438230Y-13673174D01*
X15438230Y-13673174D02*
X15447753Y-13682698D01*
X15447753Y-13682698D02*
X15457277Y-13701746D01*
X15457277Y-13701746D02*
X15457277Y-13758888D01*
X15457277Y-13758888D02*
X15447753Y-13777936D01*
X15447753Y-13777936D02*
X15438230Y-13787460D01*
X15438230Y-13787460D02*
X15419182Y-13796984D01*
X15419182Y-13796984D02*
X15390610Y-13796984D01*
X15571563Y-13796984D02*
X15552515Y-13787460D01*
X15552515Y-13787460D02*
X15542991Y-13768412D01*
X15542991Y-13768412D02*
X15542991Y-13596984D01*
X15723944Y-13787460D02*
X15704896Y-13796984D01*
X15704896Y-13796984D02*
X15666801Y-13796984D01*
X15666801Y-13796984D02*
X15647753Y-13787460D01*
X15647753Y-13787460D02*
X15638230Y-13768412D01*
X15638230Y-13768412D02*
X15638230Y-13692222D01*
X15638230Y-13692222D02*
X15647753Y-13673174D01*
X15647753Y-13673174D02*
X15666801Y-13663650D01*
X15666801Y-13663650D02*
X15704896Y-13663650D01*
X15704896Y-13663650D02*
X15723944Y-13673174D01*
X15723944Y-13673174D02*
X15733468Y-13692222D01*
X15733468Y-13692222D02*
X15733468Y-13711269D01*
X15733468Y-13711269D02*
X15638230Y-13730317D01*
X15809658Y-13787460D02*
X15828706Y-13796984D01*
X15828706Y-13796984D02*
X15866801Y-13796984D01*
X15866801Y-13796984D02*
X15885849Y-13787460D01*
X15885849Y-13787460D02*
X15895372Y-13768412D01*
X15895372Y-13768412D02*
X15895372Y-13758888D01*
X15895372Y-13758888D02*
X15885849Y-13739841D01*
X15885849Y-13739841D02*
X15866801Y-13730317D01*
X15866801Y-13730317D02*
X15838230Y-13730317D01*
X15838230Y-13730317D02*
X15819182Y-13720793D01*
X15819182Y-13720793D02*
X15809658Y-13701746D01*
X15809658Y-13701746D02*
X15809658Y-13692222D01*
X15809658Y-13692222D02*
X15819182Y-13673174D01*
X15819182Y-13673174D02*
X15838230Y-13663650D01*
X15838230Y-13663650D02*
X15866801Y-13663650D01*
X15866801Y-13663650D02*
X15885849Y-13673174D01*
X15962039Y-13873174D02*
X15971563Y-13863650D01*
X15971563Y-13863650D02*
X15990611Y-13835079D01*
X15990611Y-13835079D02*
X16000134Y-13816031D01*
X16000134Y-13816031D02*
X16009658Y-13787460D01*
X16009658Y-13787460D02*
X16019182Y-13739841D01*
X16019182Y-13739841D02*
X16019182Y-13701746D01*
X16019182Y-13701746D02*
X16009658Y-13654127D01*
X16009658Y-13654127D02*
X16000134Y-13625555D01*
X16000134Y-13625555D02*
X15990611Y-13606508D01*
X15990611Y-13606508D02*
X15971563Y-13577936D01*
X15971563Y-13577936D02*
X15962039Y-13568412D01*
D12*
X10956500Y-13929500D02*
X10956500Y-14009500D01*
X10916500Y-13969500D02*
X10996500Y-13969500D01*
D11*
X11295372Y-13860984D02*
X11314420Y-13860984D01*
X11314420Y-13860984D02*
X11333467Y-13870508D01*
X11333467Y-13870508D02*
X11342991Y-13880031D01*
X11342991Y-13880031D02*
X11352515Y-13899079D01*
X11352515Y-13899079D02*
X11362039Y-13937174D01*
X11362039Y-13937174D02*
X11362039Y-13984793D01*
X11362039Y-13984793D02*
X11352515Y-14022888D01*
X11352515Y-14022888D02*
X11342991Y-14041936D01*
X11342991Y-14041936D02*
X11333467Y-14051460D01*
X11333467Y-14051460D02*
X11314420Y-14060984D01*
X11314420Y-14060984D02*
X11295372Y-14060984D01*
X11295372Y-14060984D02*
X11276324Y-14051460D01*
X11276324Y-14051460D02*
X11266801Y-14041936D01*
X11266801Y-14041936D02*
X11257277Y-14022888D01*
X11257277Y-14022888D02*
X11247753Y-13984793D01*
X11247753Y-13984793D02*
X11247753Y-13937174D01*
X11247753Y-13937174D02*
X11257277Y-13899079D01*
X11257277Y-13899079D02*
X11266801Y-13880031D01*
X11266801Y-13880031D02*
X11276324Y-13870508D01*
X11276324Y-13870508D02*
X11295372Y-13860984D01*
X11447753Y-14041936D02*
X11457277Y-14051460D01*
X11457277Y-14051460D02*
X11447753Y-14060984D01*
X11447753Y-14060984D02*
X11438229Y-14051460D01*
X11438229Y-14051460D02*
X11447753Y-14041936D01*
X11447753Y-14041936D02*
X11447753Y-14060984D01*
X11571562Y-13946698D02*
X11552515Y-13937174D01*
X11552515Y-13937174D02*
X11542991Y-13927650D01*
X11542991Y-13927650D02*
X11533467Y-13908603D01*
X11533467Y-13908603D02*
X11533467Y-13899079D01*
X11533467Y-13899079D02*
X11542991Y-13880031D01*
X11542991Y-13880031D02*
X11552515Y-13870508D01*
X11552515Y-13870508D02*
X11571562Y-13860984D01*
X11571562Y-13860984D02*
X11609658Y-13860984D01*
X11609658Y-13860984D02*
X11628705Y-13870508D01*
X11628705Y-13870508D02*
X11638229Y-13880031D01*
X11638229Y-13880031D02*
X11647753Y-13899079D01*
X11647753Y-13899079D02*
X11647753Y-13908603D01*
X11647753Y-13908603D02*
X11638229Y-13927650D01*
X11638229Y-13927650D02*
X11628705Y-13937174D01*
X11628705Y-13937174D02*
X11609658Y-13946698D01*
X11609658Y-13946698D02*
X11571562Y-13946698D01*
X11571562Y-13946698D02*
X11552515Y-13956222D01*
X11552515Y-13956222D02*
X11542991Y-13965746D01*
X11542991Y-13965746D02*
X11533467Y-13984793D01*
X11533467Y-13984793D02*
X11533467Y-14022888D01*
X11533467Y-14022888D02*
X11542991Y-14041936D01*
X11542991Y-14041936D02*
X11552515Y-14051460D01*
X11552515Y-14051460D02*
X11571562Y-14060984D01*
X11571562Y-14060984D02*
X11609658Y-14060984D01*
X11609658Y-14060984D02*
X11628705Y-14051460D01*
X11628705Y-14051460D02*
X11638229Y-14041936D01*
X11638229Y-14041936D02*
X11647753Y-14022888D01*
X11647753Y-14022888D02*
X11647753Y-13984793D01*
X11647753Y-13984793D02*
X11638229Y-13965746D01*
X11638229Y-13965746D02*
X11628705Y-13956222D01*
X11628705Y-13956222D02*
X11609658Y-13946698D01*
X11771562Y-13860984D02*
X11790610Y-13860984D01*
X11790610Y-13860984D02*
X11809658Y-13870508D01*
X11809658Y-13870508D02*
X11819182Y-13880031D01*
X11819182Y-13880031D02*
X11828705Y-13899079D01*
X11828705Y-13899079D02*
X11838229Y-13937174D01*
X11838229Y-13937174D02*
X11838229Y-13984793D01*
X11838229Y-13984793D02*
X11828705Y-14022888D01*
X11828705Y-14022888D02*
X11819182Y-14041936D01*
X11819182Y-14041936D02*
X11809658Y-14051460D01*
X11809658Y-14051460D02*
X11790610Y-14060984D01*
X11790610Y-14060984D02*
X11771562Y-14060984D01*
X11771562Y-14060984D02*
X11752515Y-14051460D01*
X11752515Y-14051460D02*
X11742991Y-14041936D01*
X11742991Y-14041936D02*
X11733467Y-14022888D01*
X11733467Y-14022888D02*
X11723943Y-13984793D01*
X11723943Y-13984793D02*
X11723943Y-13937174D01*
X11723943Y-13937174D02*
X11733467Y-13899079D01*
X11733467Y-13899079D02*
X11742991Y-13880031D01*
X11742991Y-13880031D02*
X11752515Y-13870508D01*
X11752515Y-13870508D02*
X11771562Y-13860984D01*
X11962039Y-13860984D02*
X11981086Y-13860984D01*
X11981086Y-13860984D02*
X12000134Y-13870508D01*
X12000134Y-13870508D02*
X12009658Y-13880031D01*
X12009658Y-13880031D02*
X12019182Y-13899079D01*
X12019182Y-13899079D02*
X12028705Y-13937174D01*
X12028705Y-13937174D02*
X12028705Y-13984793D01*
X12028705Y-13984793D02*
X12019182Y-14022888D01*
X12019182Y-14022888D02*
X12009658Y-14041936D01*
X12009658Y-14041936D02*
X12000134Y-14051460D01*
X12000134Y-14051460D02*
X11981086Y-14060984D01*
X11981086Y-14060984D02*
X11962039Y-14060984D01*
X11962039Y-14060984D02*
X11942991Y-14051460D01*
X11942991Y-14051460D02*
X11933467Y-14041936D01*
X11933467Y-14041936D02*
X11923943Y-14022888D01*
X11923943Y-14022888D02*
X11914420Y-13984793D01*
X11914420Y-13984793D02*
X11914420Y-13937174D01*
X11914420Y-13937174D02*
X11923943Y-13899079D01*
X11923943Y-13899079D02*
X11933467Y-13880031D01*
X11933467Y-13880031D02*
X11942991Y-13870508D01*
X11942991Y-13870508D02*
X11962039Y-13860984D01*
X12114420Y-14060984D02*
X12114420Y-13927650D01*
X12114420Y-13946698D02*
X12123943Y-13937174D01*
X12123943Y-13937174D02*
X12142991Y-13927650D01*
X12142991Y-13927650D02*
X12171563Y-13927650D01*
X12171563Y-13927650D02*
X12190610Y-13937174D01*
X12190610Y-13937174D02*
X12200134Y-13956222D01*
X12200134Y-13956222D02*
X12200134Y-14060984D01*
X12200134Y-13956222D02*
X12209658Y-13937174D01*
X12209658Y-13937174D02*
X12228705Y-13927650D01*
X12228705Y-13927650D02*
X12257277Y-13927650D01*
X12257277Y-13927650D02*
X12276324Y-13937174D01*
X12276324Y-13937174D02*
X12285848Y-13956222D01*
X12285848Y-13956222D02*
X12285848Y-14060984D01*
X12381086Y-14060984D02*
X12381086Y-13927650D01*
X12381086Y-13946698D02*
X12390610Y-13937174D01*
X12390610Y-13937174D02*
X12409658Y-13927650D01*
X12409658Y-13927650D02*
X12438229Y-13927650D01*
X12438229Y-13927650D02*
X12457277Y-13937174D01*
X12457277Y-13937174D02*
X12466801Y-13956222D01*
X12466801Y-13956222D02*
X12466801Y-14060984D01*
X12466801Y-13956222D02*
X12476324Y-13937174D01*
X12476324Y-13937174D02*
X12495372Y-13927650D01*
X12495372Y-13927650D02*
X12523943Y-13927650D01*
X12523943Y-13927650D02*
X12542991Y-13937174D01*
X12542991Y-13937174D02*
X12552515Y-13956222D01*
X12552515Y-13956222D02*
X12552515Y-14060984D01*
X12942991Y-13851460D02*
X12771563Y-14108603D01*
X13200134Y-13860984D02*
X13219182Y-13860984D01*
X13219182Y-13860984D02*
X13238229Y-13870508D01*
X13238229Y-13870508D02*
X13247753Y-13880031D01*
X13247753Y-13880031D02*
X13257277Y-13899079D01*
X13257277Y-13899079D02*
X13266801Y-13937174D01*
X13266801Y-13937174D02*
X13266801Y-13984793D01*
X13266801Y-13984793D02*
X13257277Y-14022888D01*
X13257277Y-14022888D02*
X13247753Y-14041936D01*
X13247753Y-14041936D02*
X13238229Y-14051460D01*
X13238229Y-14051460D02*
X13219182Y-14060984D01*
X13219182Y-14060984D02*
X13200134Y-14060984D01*
X13200134Y-14060984D02*
X13181086Y-14051460D01*
X13181086Y-14051460D02*
X13171563Y-14041936D01*
X13171563Y-14041936D02*
X13162039Y-14022888D01*
X13162039Y-14022888D02*
X13152515Y-13984793D01*
X13152515Y-13984793D02*
X13152515Y-13937174D01*
X13152515Y-13937174D02*
X13162039Y-13899079D01*
X13162039Y-13899079D02*
X13171563Y-13880031D01*
X13171563Y-13880031D02*
X13181086Y-13870508D01*
X13181086Y-13870508D02*
X13200134Y-13860984D01*
X13352515Y-14041936D02*
X13362039Y-14051460D01*
X13362039Y-14051460D02*
X13352515Y-14060984D01*
X13352515Y-14060984D02*
X13342991Y-14051460D01*
X13342991Y-14051460D02*
X13352515Y-14041936D01*
X13352515Y-14041936D02*
X13352515Y-14060984D01*
X13485848Y-13860984D02*
X13504896Y-13860984D01*
X13504896Y-13860984D02*
X13523944Y-13870508D01*
X13523944Y-13870508D02*
X13533467Y-13880031D01*
X13533467Y-13880031D02*
X13542991Y-13899079D01*
X13542991Y-13899079D02*
X13552515Y-13937174D01*
X13552515Y-13937174D02*
X13552515Y-13984793D01*
X13552515Y-13984793D02*
X13542991Y-14022888D01*
X13542991Y-14022888D02*
X13533467Y-14041936D01*
X13533467Y-14041936D02*
X13523944Y-14051460D01*
X13523944Y-14051460D02*
X13504896Y-14060984D01*
X13504896Y-14060984D02*
X13485848Y-14060984D01*
X13485848Y-14060984D02*
X13466801Y-14051460D01*
X13466801Y-14051460D02*
X13457277Y-14041936D01*
X13457277Y-14041936D02*
X13447753Y-14022888D01*
X13447753Y-14022888D02*
X13438229Y-13984793D01*
X13438229Y-13984793D02*
X13438229Y-13937174D01*
X13438229Y-13937174D02*
X13447753Y-13899079D01*
X13447753Y-13899079D02*
X13457277Y-13880031D01*
X13457277Y-13880031D02*
X13466801Y-13870508D01*
X13466801Y-13870508D02*
X13485848Y-13860984D01*
X13619182Y-13860984D02*
X13742991Y-13860984D01*
X13742991Y-13860984D02*
X13676325Y-13937174D01*
X13676325Y-13937174D02*
X13704896Y-13937174D01*
X13704896Y-13937174D02*
X13723944Y-13946698D01*
X13723944Y-13946698D02*
X13733467Y-13956222D01*
X13733467Y-13956222D02*
X13742991Y-13975269D01*
X13742991Y-13975269D02*
X13742991Y-14022888D01*
X13742991Y-14022888D02*
X13733467Y-14041936D01*
X13733467Y-14041936D02*
X13723944Y-14051460D01*
X13723944Y-14051460D02*
X13704896Y-14060984D01*
X13704896Y-14060984D02*
X13647753Y-14060984D01*
X13647753Y-14060984D02*
X13628706Y-14051460D01*
X13628706Y-14051460D02*
X13619182Y-14041936D01*
X13933467Y-14060984D02*
X13819182Y-14060984D01*
X13876325Y-14060984D02*
X13876325Y-13860984D01*
X13876325Y-13860984D02*
X13857277Y-13889555D01*
X13857277Y-13889555D02*
X13838229Y-13908603D01*
X13838229Y-13908603D02*
X13819182Y-13918127D01*
X14114420Y-13860984D02*
X14019182Y-13860984D01*
X14019182Y-13860984D02*
X14009658Y-13956222D01*
X14009658Y-13956222D02*
X14019182Y-13946698D01*
X14019182Y-13946698D02*
X14038229Y-13937174D01*
X14038229Y-13937174D02*
X14085848Y-13937174D01*
X14085848Y-13937174D02*
X14104896Y-13946698D01*
X14104896Y-13946698D02*
X14114420Y-13956222D01*
X14114420Y-13956222D02*
X14123944Y-13975269D01*
X14123944Y-13975269D02*
X14123944Y-14022888D01*
X14123944Y-14022888D02*
X14114420Y-14041936D01*
X14114420Y-14041936D02*
X14104896Y-14051460D01*
X14104896Y-14051460D02*
X14085848Y-14060984D01*
X14085848Y-14060984D02*
X14038229Y-14060984D01*
X14038229Y-14060984D02*
X14019182Y-14051460D01*
X14019182Y-14051460D02*
X14009658Y-14041936D01*
X14200134Y-13860984D02*
X14200134Y-13899079D01*
X14276325Y-13860984D02*
X14276325Y-13899079D01*
X14571563Y-14137174D02*
X14562039Y-14127650D01*
X14562039Y-14127650D02*
X14542991Y-14099079D01*
X14542991Y-14099079D02*
X14533468Y-14080031D01*
X14533468Y-14080031D02*
X14523944Y-14051460D01*
X14523944Y-14051460D02*
X14514420Y-14003841D01*
X14514420Y-14003841D02*
X14514420Y-13965746D01*
X14514420Y-13965746D02*
X14523944Y-13918127D01*
X14523944Y-13918127D02*
X14533468Y-13889555D01*
X14533468Y-13889555D02*
X14542991Y-13870508D01*
X14542991Y-13870508D02*
X14562039Y-13841936D01*
X14562039Y-13841936D02*
X14571563Y-13832412D01*
X14638229Y-13880031D02*
X14647753Y-13870508D01*
X14647753Y-13870508D02*
X14666801Y-13860984D01*
X14666801Y-13860984D02*
X14714420Y-13860984D01*
X14714420Y-13860984D02*
X14733468Y-13870508D01*
X14733468Y-13870508D02*
X14742991Y-13880031D01*
X14742991Y-13880031D02*
X14752515Y-13899079D01*
X14752515Y-13899079D02*
X14752515Y-13918127D01*
X14752515Y-13918127D02*
X14742991Y-13946698D01*
X14742991Y-13946698D02*
X14628706Y-14060984D01*
X14628706Y-14060984D02*
X14752515Y-14060984D01*
X14866801Y-13946698D02*
X14847753Y-13937174D01*
X14847753Y-13937174D02*
X14838229Y-13927650D01*
X14838229Y-13927650D02*
X14828706Y-13908603D01*
X14828706Y-13908603D02*
X14828706Y-13899079D01*
X14828706Y-13899079D02*
X14838229Y-13880031D01*
X14838229Y-13880031D02*
X14847753Y-13870508D01*
X14847753Y-13870508D02*
X14866801Y-13860984D01*
X14866801Y-13860984D02*
X14904896Y-13860984D01*
X14904896Y-13860984D02*
X14923944Y-13870508D01*
X14923944Y-13870508D02*
X14933468Y-13880031D01*
X14933468Y-13880031D02*
X14942991Y-13899079D01*
X14942991Y-13899079D02*
X14942991Y-13908603D01*
X14942991Y-13908603D02*
X14933468Y-13927650D01*
X14933468Y-13927650D02*
X14923944Y-13937174D01*
X14923944Y-13937174D02*
X14904896Y-13946698D01*
X14904896Y-13946698D02*
X14866801Y-13946698D01*
X14866801Y-13946698D02*
X14847753Y-13956222D01*
X14847753Y-13956222D02*
X14838229Y-13965746D01*
X14838229Y-13965746D02*
X14828706Y-13984793D01*
X14828706Y-13984793D02*
X14828706Y-14022888D01*
X14828706Y-14022888D02*
X14838229Y-14041936D01*
X14838229Y-14041936D02*
X14847753Y-14051460D01*
X14847753Y-14051460D02*
X14866801Y-14060984D01*
X14866801Y-14060984D02*
X14904896Y-14060984D01*
X14904896Y-14060984D02*
X14923944Y-14051460D01*
X14923944Y-14051460D02*
X14933468Y-14041936D01*
X14933468Y-14041936D02*
X14942991Y-14022888D01*
X14942991Y-14022888D02*
X14942991Y-13984793D01*
X14942991Y-13984793D02*
X14933468Y-13965746D01*
X14933468Y-13965746D02*
X14923944Y-13956222D01*
X14923944Y-13956222D02*
X14904896Y-13946698D01*
X15181087Y-14060984D02*
X15181087Y-13860984D01*
X15266801Y-14060984D02*
X15266801Y-13956222D01*
X15266801Y-13956222D02*
X15257277Y-13937174D01*
X15257277Y-13937174D02*
X15238230Y-13927650D01*
X15238230Y-13927650D02*
X15209658Y-13927650D01*
X15209658Y-13927650D02*
X15190610Y-13937174D01*
X15190610Y-13937174D02*
X15181087Y-13946698D01*
X15390610Y-14060984D02*
X15371563Y-14051460D01*
X15371563Y-14051460D02*
X15362039Y-14041936D01*
X15362039Y-14041936D02*
X15352515Y-14022888D01*
X15352515Y-14022888D02*
X15352515Y-13965746D01*
X15352515Y-13965746D02*
X15362039Y-13946698D01*
X15362039Y-13946698D02*
X15371563Y-13937174D01*
X15371563Y-13937174D02*
X15390610Y-13927650D01*
X15390610Y-13927650D02*
X15419182Y-13927650D01*
X15419182Y-13927650D02*
X15438230Y-13937174D01*
X15438230Y-13937174D02*
X15447753Y-13946698D01*
X15447753Y-13946698D02*
X15457277Y-13965746D01*
X15457277Y-13965746D02*
X15457277Y-14022888D01*
X15457277Y-14022888D02*
X15447753Y-14041936D01*
X15447753Y-14041936D02*
X15438230Y-14051460D01*
X15438230Y-14051460D02*
X15419182Y-14060984D01*
X15419182Y-14060984D02*
X15390610Y-14060984D01*
X15571563Y-14060984D02*
X15552515Y-14051460D01*
X15552515Y-14051460D02*
X15542991Y-14032412D01*
X15542991Y-14032412D02*
X15542991Y-13860984D01*
X15723944Y-14051460D02*
X15704896Y-14060984D01*
X15704896Y-14060984D02*
X15666801Y-14060984D01*
X15666801Y-14060984D02*
X15647753Y-14051460D01*
X15647753Y-14051460D02*
X15638230Y-14032412D01*
X15638230Y-14032412D02*
X15638230Y-13956222D01*
X15638230Y-13956222D02*
X15647753Y-13937174D01*
X15647753Y-13937174D02*
X15666801Y-13927650D01*
X15666801Y-13927650D02*
X15704896Y-13927650D01*
X15704896Y-13927650D02*
X15723944Y-13937174D01*
X15723944Y-13937174D02*
X15733468Y-13956222D01*
X15733468Y-13956222D02*
X15733468Y-13975269D01*
X15733468Y-13975269D02*
X15638230Y-13994317D01*
X15809658Y-14051460D02*
X15828706Y-14060984D01*
X15828706Y-14060984D02*
X15866801Y-14060984D01*
X15866801Y-14060984D02*
X15885849Y-14051460D01*
X15885849Y-14051460D02*
X15895372Y-14032412D01*
X15895372Y-14032412D02*
X15895372Y-14022888D01*
X15895372Y-14022888D02*
X15885849Y-14003841D01*
X15885849Y-14003841D02*
X15866801Y-13994317D01*
X15866801Y-13994317D02*
X15838230Y-13994317D01*
X15838230Y-13994317D02*
X15819182Y-13984793D01*
X15819182Y-13984793D02*
X15809658Y-13965746D01*
X15809658Y-13965746D02*
X15809658Y-13956222D01*
X15809658Y-13956222D02*
X15819182Y-13937174D01*
X15819182Y-13937174D02*
X15838230Y-13927650D01*
X15838230Y-13927650D02*
X15866801Y-13927650D01*
X15866801Y-13927650D02*
X15885849Y-13937174D01*
X15962039Y-14137174D02*
X15971563Y-14127650D01*
X15971563Y-14127650D02*
X15990611Y-14099079D01*
X15990611Y-14099079D02*
X16000134Y-14080031D01*
X16000134Y-14080031D02*
X16009658Y-14051460D01*
X16009658Y-14051460D02*
X16019182Y-14003841D01*
X16019182Y-14003841D02*
X16019182Y-13965746D01*
X16019182Y-13965746D02*
X16009658Y-13918127D01*
X16009658Y-13918127D02*
X16000134Y-13889555D01*
X16000134Y-13889555D02*
X15990611Y-13870508D01*
X15990611Y-13870508D02*
X15971563Y-13841936D01*
X15971563Y-13841936D02*
X15962039Y-13832412D01*
D12*
X10981856Y-14268856D02*
X10981856Y-14198144D01*
X10911144Y-14198144D01*
X10911144Y-14268856D01*
X10981856Y-14268856D01*
D11*
X11362039Y-14324984D02*
X11247753Y-14324984D01*
X11304896Y-14324984D02*
X11304896Y-14124984D01*
X11304896Y-14124984D02*
X11285848Y-14153555D01*
X11285848Y-14153555D02*
X11266801Y-14172603D01*
X11266801Y-14172603D02*
X11247753Y-14182127D01*
X11447753Y-14305936D02*
X11457277Y-14315460D01*
X11457277Y-14315460D02*
X11447753Y-14324984D01*
X11447753Y-14324984D02*
X11438229Y-14315460D01*
X11438229Y-14315460D02*
X11447753Y-14305936D01*
X11447753Y-14305936D02*
X11447753Y-14324984D01*
X11581086Y-14124984D02*
X11600134Y-14124984D01*
X11600134Y-14124984D02*
X11619182Y-14134508D01*
X11619182Y-14134508D02*
X11628705Y-14144031D01*
X11628705Y-14144031D02*
X11638229Y-14163079D01*
X11638229Y-14163079D02*
X11647753Y-14201174D01*
X11647753Y-14201174D02*
X11647753Y-14248793D01*
X11647753Y-14248793D02*
X11638229Y-14286888D01*
X11638229Y-14286888D02*
X11628705Y-14305936D01*
X11628705Y-14305936D02*
X11619182Y-14315460D01*
X11619182Y-14315460D02*
X11600134Y-14324984D01*
X11600134Y-14324984D02*
X11581086Y-14324984D01*
X11581086Y-14324984D02*
X11562039Y-14315460D01*
X11562039Y-14315460D02*
X11552515Y-14305936D01*
X11552515Y-14305936D02*
X11542991Y-14286888D01*
X11542991Y-14286888D02*
X11533467Y-14248793D01*
X11533467Y-14248793D02*
X11533467Y-14201174D01*
X11533467Y-14201174D02*
X11542991Y-14163079D01*
X11542991Y-14163079D02*
X11552515Y-14144031D01*
X11552515Y-14144031D02*
X11562039Y-14134508D01*
X11562039Y-14134508D02*
X11581086Y-14124984D01*
X11771562Y-14124984D02*
X11790610Y-14124984D01*
X11790610Y-14124984D02*
X11809658Y-14134508D01*
X11809658Y-14134508D02*
X11819182Y-14144031D01*
X11819182Y-14144031D02*
X11828705Y-14163079D01*
X11828705Y-14163079D02*
X11838229Y-14201174D01*
X11838229Y-14201174D02*
X11838229Y-14248793D01*
X11838229Y-14248793D02*
X11828705Y-14286888D01*
X11828705Y-14286888D02*
X11819182Y-14305936D01*
X11819182Y-14305936D02*
X11809658Y-14315460D01*
X11809658Y-14315460D02*
X11790610Y-14324984D01*
X11790610Y-14324984D02*
X11771562Y-14324984D01*
X11771562Y-14324984D02*
X11752515Y-14315460D01*
X11752515Y-14315460D02*
X11742991Y-14305936D01*
X11742991Y-14305936D02*
X11733467Y-14286888D01*
X11733467Y-14286888D02*
X11723943Y-14248793D01*
X11723943Y-14248793D02*
X11723943Y-14201174D01*
X11723943Y-14201174D02*
X11733467Y-14163079D01*
X11733467Y-14163079D02*
X11742991Y-14144031D01*
X11742991Y-14144031D02*
X11752515Y-14134508D01*
X11752515Y-14134508D02*
X11771562Y-14124984D01*
X11962039Y-14124984D02*
X11981086Y-14124984D01*
X11981086Y-14124984D02*
X12000134Y-14134508D01*
X12000134Y-14134508D02*
X12009658Y-14144031D01*
X12009658Y-14144031D02*
X12019182Y-14163079D01*
X12019182Y-14163079D02*
X12028705Y-14201174D01*
X12028705Y-14201174D02*
X12028705Y-14248793D01*
X12028705Y-14248793D02*
X12019182Y-14286888D01*
X12019182Y-14286888D02*
X12009658Y-14305936D01*
X12009658Y-14305936D02*
X12000134Y-14315460D01*
X12000134Y-14315460D02*
X11981086Y-14324984D01*
X11981086Y-14324984D02*
X11962039Y-14324984D01*
X11962039Y-14324984D02*
X11942991Y-14315460D01*
X11942991Y-14315460D02*
X11933467Y-14305936D01*
X11933467Y-14305936D02*
X11923943Y-14286888D01*
X11923943Y-14286888D02*
X11914420Y-14248793D01*
X11914420Y-14248793D02*
X11914420Y-14201174D01*
X11914420Y-14201174D02*
X11923943Y-14163079D01*
X11923943Y-14163079D02*
X11933467Y-14144031D01*
X11933467Y-14144031D02*
X11942991Y-14134508D01*
X11942991Y-14134508D02*
X11962039Y-14124984D01*
X12114420Y-14324984D02*
X12114420Y-14191650D01*
X12114420Y-14210698D02*
X12123943Y-14201174D01*
X12123943Y-14201174D02*
X12142991Y-14191650D01*
X12142991Y-14191650D02*
X12171563Y-14191650D01*
X12171563Y-14191650D02*
X12190610Y-14201174D01*
X12190610Y-14201174D02*
X12200134Y-14220222D01*
X12200134Y-14220222D02*
X12200134Y-14324984D01*
X12200134Y-14220222D02*
X12209658Y-14201174D01*
X12209658Y-14201174D02*
X12228705Y-14191650D01*
X12228705Y-14191650D02*
X12257277Y-14191650D01*
X12257277Y-14191650D02*
X12276324Y-14201174D01*
X12276324Y-14201174D02*
X12285848Y-14220222D01*
X12285848Y-14220222D02*
X12285848Y-14324984D01*
X12381086Y-14324984D02*
X12381086Y-14191650D01*
X12381086Y-14210698D02*
X12390610Y-14201174D01*
X12390610Y-14201174D02*
X12409658Y-14191650D01*
X12409658Y-14191650D02*
X12438229Y-14191650D01*
X12438229Y-14191650D02*
X12457277Y-14201174D01*
X12457277Y-14201174D02*
X12466801Y-14220222D01*
X12466801Y-14220222D02*
X12466801Y-14324984D01*
X12466801Y-14220222D02*
X12476324Y-14201174D01*
X12476324Y-14201174D02*
X12495372Y-14191650D01*
X12495372Y-14191650D02*
X12523943Y-14191650D01*
X12523943Y-14191650D02*
X12542991Y-14201174D01*
X12542991Y-14201174D02*
X12552515Y-14220222D01*
X12552515Y-14220222D02*
X12552515Y-14324984D01*
X12942991Y-14115460D02*
X12771563Y-14372603D01*
X13200134Y-14124984D02*
X13219182Y-14124984D01*
X13219182Y-14124984D02*
X13238229Y-14134508D01*
X13238229Y-14134508D02*
X13247753Y-14144031D01*
X13247753Y-14144031D02*
X13257277Y-14163079D01*
X13257277Y-14163079D02*
X13266801Y-14201174D01*
X13266801Y-14201174D02*
X13266801Y-14248793D01*
X13266801Y-14248793D02*
X13257277Y-14286888D01*
X13257277Y-14286888D02*
X13247753Y-14305936D01*
X13247753Y-14305936D02*
X13238229Y-14315460D01*
X13238229Y-14315460D02*
X13219182Y-14324984D01*
X13219182Y-14324984D02*
X13200134Y-14324984D01*
X13200134Y-14324984D02*
X13181086Y-14315460D01*
X13181086Y-14315460D02*
X13171563Y-14305936D01*
X13171563Y-14305936D02*
X13162039Y-14286888D01*
X13162039Y-14286888D02*
X13152515Y-14248793D01*
X13152515Y-14248793D02*
X13152515Y-14201174D01*
X13152515Y-14201174D02*
X13162039Y-14163079D01*
X13162039Y-14163079D02*
X13171563Y-14144031D01*
X13171563Y-14144031D02*
X13181086Y-14134508D01*
X13181086Y-14134508D02*
X13200134Y-14124984D01*
X13352515Y-14305936D02*
X13362039Y-14315460D01*
X13362039Y-14315460D02*
X13352515Y-14324984D01*
X13352515Y-14324984D02*
X13342991Y-14315460D01*
X13342991Y-14315460D02*
X13352515Y-14305936D01*
X13352515Y-14305936D02*
X13352515Y-14324984D01*
X13485848Y-14124984D02*
X13504896Y-14124984D01*
X13504896Y-14124984D02*
X13523944Y-14134508D01*
X13523944Y-14134508D02*
X13533467Y-14144031D01*
X13533467Y-14144031D02*
X13542991Y-14163079D01*
X13542991Y-14163079D02*
X13552515Y-14201174D01*
X13552515Y-14201174D02*
X13552515Y-14248793D01*
X13552515Y-14248793D02*
X13542991Y-14286888D01*
X13542991Y-14286888D02*
X13533467Y-14305936D01*
X13533467Y-14305936D02*
X13523944Y-14315460D01*
X13523944Y-14315460D02*
X13504896Y-14324984D01*
X13504896Y-14324984D02*
X13485848Y-14324984D01*
X13485848Y-14324984D02*
X13466801Y-14315460D01*
X13466801Y-14315460D02*
X13457277Y-14305936D01*
X13457277Y-14305936D02*
X13447753Y-14286888D01*
X13447753Y-14286888D02*
X13438229Y-14248793D01*
X13438229Y-14248793D02*
X13438229Y-14201174D01*
X13438229Y-14201174D02*
X13447753Y-14163079D01*
X13447753Y-14163079D02*
X13457277Y-14144031D01*
X13457277Y-14144031D02*
X13466801Y-14134508D01*
X13466801Y-14134508D02*
X13485848Y-14124984D01*
X13619182Y-14124984D02*
X13742991Y-14124984D01*
X13742991Y-14124984D02*
X13676325Y-14201174D01*
X13676325Y-14201174D02*
X13704896Y-14201174D01*
X13704896Y-14201174D02*
X13723944Y-14210698D01*
X13723944Y-14210698D02*
X13733467Y-14220222D01*
X13733467Y-14220222D02*
X13742991Y-14239269D01*
X13742991Y-14239269D02*
X13742991Y-14286888D01*
X13742991Y-14286888D02*
X13733467Y-14305936D01*
X13733467Y-14305936D02*
X13723944Y-14315460D01*
X13723944Y-14315460D02*
X13704896Y-14324984D01*
X13704896Y-14324984D02*
X13647753Y-14324984D01*
X13647753Y-14324984D02*
X13628706Y-14315460D01*
X13628706Y-14315460D02*
X13619182Y-14305936D01*
X13838229Y-14324984D02*
X13876325Y-14324984D01*
X13876325Y-14324984D02*
X13895372Y-14315460D01*
X13895372Y-14315460D02*
X13904896Y-14305936D01*
X13904896Y-14305936D02*
X13923944Y-14277365D01*
X13923944Y-14277365D02*
X13933467Y-14239269D01*
X13933467Y-14239269D02*
X13933467Y-14163079D01*
X13933467Y-14163079D02*
X13923944Y-14144031D01*
X13923944Y-14144031D02*
X13914420Y-14134508D01*
X13914420Y-14134508D02*
X13895372Y-14124984D01*
X13895372Y-14124984D02*
X13857277Y-14124984D01*
X13857277Y-14124984D02*
X13838229Y-14134508D01*
X13838229Y-14134508D02*
X13828706Y-14144031D01*
X13828706Y-14144031D02*
X13819182Y-14163079D01*
X13819182Y-14163079D02*
X13819182Y-14210698D01*
X13819182Y-14210698D02*
X13828706Y-14229746D01*
X13828706Y-14229746D02*
X13838229Y-14239269D01*
X13838229Y-14239269D02*
X13857277Y-14248793D01*
X13857277Y-14248793D02*
X13895372Y-14248793D01*
X13895372Y-14248793D02*
X13914420Y-14239269D01*
X13914420Y-14239269D02*
X13923944Y-14229746D01*
X13923944Y-14229746D02*
X13933467Y-14210698D01*
X14104896Y-14191650D02*
X14104896Y-14324984D01*
X14057277Y-14115460D02*
X14009658Y-14258317D01*
X14009658Y-14258317D02*
X14133467Y-14258317D01*
X14200134Y-14124984D02*
X14200134Y-14163079D01*
X14276325Y-14124984D02*
X14276325Y-14163079D01*
X14571563Y-14401174D02*
X14562039Y-14391650D01*
X14562039Y-14391650D02*
X14542991Y-14363079D01*
X14542991Y-14363079D02*
X14533468Y-14344031D01*
X14533468Y-14344031D02*
X14523944Y-14315460D01*
X14523944Y-14315460D02*
X14514420Y-14267841D01*
X14514420Y-14267841D02*
X14514420Y-14229746D01*
X14514420Y-14229746D02*
X14523944Y-14182127D01*
X14523944Y-14182127D02*
X14533468Y-14153555D01*
X14533468Y-14153555D02*
X14542991Y-14134508D01*
X14542991Y-14134508D02*
X14562039Y-14105936D01*
X14562039Y-14105936D02*
X14571563Y-14096412D01*
X14657277Y-14324984D02*
X14695372Y-14324984D01*
X14695372Y-14324984D02*
X14714420Y-14315460D01*
X14714420Y-14315460D02*
X14723944Y-14305936D01*
X14723944Y-14305936D02*
X14742991Y-14277365D01*
X14742991Y-14277365D02*
X14752515Y-14239269D01*
X14752515Y-14239269D02*
X14752515Y-14163079D01*
X14752515Y-14163079D02*
X14742991Y-14144031D01*
X14742991Y-14144031D02*
X14733468Y-14134508D01*
X14733468Y-14134508D02*
X14714420Y-14124984D01*
X14714420Y-14124984D02*
X14676325Y-14124984D01*
X14676325Y-14124984D02*
X14657277Y-14134508D01*
X14657277Y-14134508D02*
X14647753Y-14144031D01*
X14647753Y-14144031D02*
X14638229Y-14163079D01*
X14638229Y-14163079D02*
X14638229Y-14210698D01*
X14638229Y-14210698D02*
X14647753Y-14229746D01*
X14647753Y-14229746D02*
X14657277Y-14239269D01*
X14657277Y-14239269D02*
X14676325Y-14248793D01*
X14676325Y-14248793D02*
X14714420Y-14248793D01*
X14714420Y-14248793D02*
X14733468Y-14239269D01*
X14733468Y-14239269D02*
X14742991Y-14229746D01*
X14742991Y-14229746D02*
X14752515Y-14210698D01*
X14990610Y-14324984D02*
X14990610Y-14124984D01*
X15076325Y-14324984D02*
X15076325Y-14220222D01*
X15076325Y-14220222D02*
X15066801Y-14201174D01*
X15066801Y-14201174D02*
X15047753Y-14191650D01*
X15047753Y-14191650D02*
X15019182Y-14191650D01*
X15019182Y-14191650D02*
X15000134Y-14201174D01*
X15000134Y-14201174D02*
X14990610Y-14210698D01*
X15200134Y-14324984D02*
X15181087Y-14315460D01*
X15181087Y-14315460D02*
X15171563Y-14305936D01*
X15171563Y-14305936D02*
X15162039Y-14286888D01*
X15162039Y-14286888D02*
X15162039Y-14229746D01*
X15162039Y-14229746D02*
X15171563Y-14210698D01*
X15171563Y-14210698D02*
X15181087Y-14201174D01*
X15181087Y-14201174D02*
X15200134Y-14191650D01*
X15200134Y-14191650D02*
X15228706Y-14191650D01*
X15228706Y-14191650D02*
X15247753Y-14201174D01*
X15247753Y-14201174D02*
X15257277Y-14210698D01*
X15257277Y-14210698D02*
X15266801Y-14229746D01*
X15266801Y-14229746D02*
X15266801Y-14286888D01*
X15266801Y-14286888D02*
X15257277Y-14305936D01*
X15257277Y-14305936D02*
X15247753Y-14315460D01*
X15247753Y-14315460D02*
X15228706Y-14324984D01*
X15228706Y-14324984D02*
X15200134Y-14324984D01*
X15381087Y-14324984D02*
X15362039Y-14315460D01*
X15362039Y-14315460D02*
X15352515Y-14296412D01*
X15352515Y-14296412D02*
X15352515Y-14124984D01*
X15533468Y-14315460D02*
X15514420Y-14324984D01*
X15514420Y-14324984D02*
X15476325Y-14324984D01*
X15476325Y-14324984D02*
X15457277Y-14315460D01*
X15457277Y-14315460D02*
X15447753Y-14296412D01*
X15447753Y-14296412D02*
X15447753Y-14220222D01*
X15447753Y-14220222D02*
X15457277Y-14201174D01*
X15457277Y-14201174D02*
X15476325Y-14191650D01*
X15476325Y-14191650D02*
X15514420Y-14191650D01*
X15514420Y-14191650D02*
X15533468Y-14201174D01*
X15533468Y-14201174D02*
X15542991Y-14220222D01*
X15542991Y-14220222D02*
X15542991Y-14239269D01*
X15542991Y-14239269D02*
X15447753Y-14258317D01*
X15619182Y-14315460D02*
X15638230Y-14324984D01*
X15638230Y-14324984D02*
X15676325Y-14324984D01*
X15676325Y-14324984D02*
X15695372Y-14315460D01*
X15695372Y-14315460D02*
X15704896Y-14296412D01*
X15704896Y-14296412D02*
X15704896Y-14286888D01*
X15704896Y-14286888D02*
X15695372Y-14267841D01*
X15695372Y-14267841D02*
X15676325Y-14258317D01*
X15676325Y-14258317D02*
X15647753Y-14258317D01*
X15647753Y-14258317D02*
X15628706Y-14248793D01*
X15628706Y-14248793D02*
X15619182Y-14229746D01*
X15619182Y-14229746D02*
X15619182Y-14220222D01*
X15619182Y-14220222D02*
X15628706Y-14201174D01*
X15628706Y-14201174D02*
X15647753Y-14191650D01*
X15647753Y-14191650D02*
X15676325Y-14191650D01*
X15676325Y-14191650D02*
X15695372Y-14201174D01*
X15771563Y-14401174D02*
X15781087Y-14391650D01*
X15781087Y-14391650D02*
X15800134Y-14363079D01*
X15800134Y-14363079D02*
X15809658Y-14344031D01*
X15809658Y-14344031D02*
X15819182Y-14315460D01*
X15819182Y-14315460D02*
X15828706Y-14267841D01*
X15828706Y-14267841D02*
X15828706Y-14229746D01*
X15828706Y-14229746D02*
X15819182Y-14182127D01*
X15819182Y-14182127D02*
X15809658Y-14153555D01*
X15809658Y-14153555D02*
X15800134Y-14134508D01*
X15800134Y-14134508D02*
X15781087Y-14105936D01*
X15781087Y-14105936D02*
X15771563Y-14096412D01*
X10896500Y-14597500D02*
X10996500Y-14497500D01*
X10896500Y-14397500D01*
X10796500Y-14497500D01*
X10896500Y-14597500D01*
X11247753Y-14408031D02*
X11257277Y-14398508D01*
X11257277Y-14398508D02*
X11276324Y-14388984D01*
X11276324Y-14388984D02*
X11323943Y-14388984D01*
X11323943Y-14388984D02*
X11342991Y-14398508D01*
X11342991Y-14398508D02*
X11352515Y-14408031D01*
X11352515Y-14408031D02*
X11362039Y-14427079D01*
X11362039Y-14427079D02*
X11362039Y-14446127D01*
X11362039Y-14446127D02*
X11352515Y-14474698D01*
X11352515Y-14474698D02*
X11238229Y-14588984D01*
X11238229Y-14588984D02*
X11362039Y-14588984D01*
X11447753Y-14569936D02*
X11457277Y-14579460D01*
X11457277Y-14579460D02*
X11447753Y-14588984D01*
X11447753Y-14588984D02*
X11438229Y-14579460D01*
X11438229Y-14579460D02*
X11447753Y-14569936D01*
X11447753Y-14569936D02*
X11447753Y-14588984D01*
X11638229Y-14388984D02*
X11542991Y-14388984D01*
X11542991Y-14388984D02*
X11533467Y-14484222D01*
X11533467Y-14484222D02*
X11542991Y-14474698D01*
X11542991Y-14474698D02*
X11562039Y-14465174D01*
X11562039Y-14465174D02*
X11609658Y-14465174D01*
X11609658Y-14465174D02*
X11628705Y-14474698D01*
X11628705Y-14474698D02*
X11638229Y-14484222D01*
X11638229Y-14484222D02*
X11647753Y-14503269D01*
X11647753Y-14503269D02*
X11647753Y-14550888D01*
X11647753Y-14550888D02*
X11638229Y-14569936D01*
X11638229Y-14569936D02*
X11628705Y-14579460D01*
X11628705Y-14579460D02*
X11609658Y-14588984D01*
X11609658Y-14588984D02*
X11562039Y-14588984D01*
X11562039Y-14588984D02*
X11542991Y-14579460D01*
X11542991Y-14579460D02*
X11533467Y-14569936D01*
X11771562Y-14388984D02*
X11790610Y-14388984D01*
X11790610Y-14388984D02*
X11809658Y-14398508D01*
X11809658Y-14398508D02*
X11819182Y-14408031D01*
X11819182Y-14408031D02*
X11828705Y-14427079D01*
X11828705Y-14427079D02*
X11838229Y-14465174D01*
X11838229Y-14465174D02*
X11838229Y-14512793D01*
X11838229Y-14512793D02*
X11828705Y-14550888D01*
X11828705Y-14550888D02*
X11819182Y-14569936D01*
X11819182Y-14569936D02*
X11809658Y-14579460D01*
X11809658Y-14579460D02*
X11790610Y-14588984D01*
X11790610Y-14588984D02*
X11771562Y-14588984D01*
X11771562Y-14588984D02*
X11752515Y-14579460D01*
X11752515Y-14579460D02*
X11742991Y-14569936D01*
X11742991Y-14569936D02*
X11733467Y-14550888D01*
X11733467Y-14550888D02*
X11723943Y-14512793D01*
X11723943Y-14512793D02*
X11723943Y-14465174D01*
X11723943Y-14465174D02*
X11733467Y-14427079D01*
X11733467Y-14427079D02*
X11742991Y-14408031D01*
X11742991Y-14408031D02*
X11752515Y-14398508D01*
X11752515Y-14398508D02*
X11771562Y-14388984D01*
X11962039Y-14388984D02*
X11981086Y-14388984D01*
X11981086Y-14388984D02*
X12000134Y-14398508D01*
X12000134Y-14398508D02*
X12009658Y-14408031D01*
X12009658Y-14408031D02*
X12019182Y-14427079D01*
X12019182Y-14427079D02*
X12028705Y-14465174D01*
X12028705Y-14465174D02*
X12028705Y-14512793D01*
X12028705Y-14512793D02*
X12019182Y-14550888D01*
X12019182Y-14550888D02*
X12009658Y-14569936D01*
X12009658Y-14569936D02*
X12000134Y-14579460D01*
X12000134Y-14579460D02*
X11981086Y-14588984D01*
X11981086Y-14588984D02*
X11962039Y-14588984D01*
X11962039Y-14588984D02*
X11942991Y-14579460D01*
X11942991Y-14579460D02*
X11933467Y-14569936D01*
X11933467Y-14569936D02*
X11923943Y-14550888D01*
X11923943Y-14550888D02*
X11914420Y-14512793D01*
X11914420Y-14512793D02*
X11914420Y-14465174D01*
X11914420Y-14465174D02*
X11923943Y-14427079D01*
X11923943Y-14427079D02*
X11933467Y-14408031D01*
X11933467Y-14408031D02*
X11942991Y-14398508D01*
X11942991Y-14398508D02*
X11962039Y-14388984D01*
X12114420Y-14588984D02*
X12114420Y-14455650D01*
X12114420Y-14474698D02*
X12123943Y-14465174D01*
X12123943Y-14465174D02*
X12142991Y-14455650D01*
X12142991Y-14455650D02*
X12171563Y-14455650D01*
X12171563Y-14455650D02*
X12190610Y-14465174D01*
X12190610Y-14465174D02*
X12200134Y-14484222D01*
X12200134Y-14484222D02*
X12200134Y-14588984D01*
X12200134Y-14484222D02*
X12209658Y-14465174D01*
X12209658Y-14465174D02*
X12228705Y-14455650D01*
X12228705Y-14455650D02*
X12257277Y-14455650D01*
X12257277Y-14455650D02*
X12276324Y-14465174D01*
X12276324Y-14465174D02*
X12285848Y-14484222D01*
X12285848Y-14484222D02*
X12285848Y-14588984D01*
X12381086Y-14588984D02*
X12381086Y-14455650D01*
X12381086Y-14474698D02*
X12390610Y-14465174D01*
X12390610Y-14465174D02*
X12409658Y-14455650D01*
X12409658Y-14455650D02*
X12438229Y-14455650D01*
X12438229Y-14455650D02*
X12457277Y-14465174D01*
X12457277Y-14465174D02*
X12466801Y-14484222D01*
X12466801Y-14484222D02*
X12466801Y-14588984D01*
X12466801Y-14484222D02*
X12476324Y-14465174D01*
X12476324Y-14465174D02*
X12495372Y-14455650D01*
X12495372Y-14455650D02*
X12523943Y-14455650D01*
X12523943Y-14455650D02*
X12542991Y-14465174D01*
X12542991Y-14465174D02*
X12552515Y-14484222D01*
X12552515Y-14484222D02*
X12552515Y-14588984D01*
X12942991Y-14379460D02*
X12771563Y-14636603D01*
X13200134Y-14388984D02*
X13219182Y-14388984D01*
X13219182Y-14388984D02*
X13238229Y-14398508D01*
X13238229Y-14398508D02*
X13247753Y-14408031D01*
X13247753Y-14408031D02*
X13257277Y-14427079D01*
X13257277Y-14427079D02*
X13266801Y-14465174D01*
X13266801Y-14465174D02*
X13266801Y-14512793D01*
X13266801Y-14512793D02*
X13257277Y-14550888D01*
X13257277Y-14550888D02*
X13247753Y-14569936D01*
X13247753Y-14569936D02*
X13238229Y-14579460D01*
X13238229Y-14579460D02*
X13219182Y-14588984D01*
X13219182Y-14588984D02*
X13200134Y-14588984D01*
X13200134Y-14588984D02*
X13181086Y-14579460D01*
X13181086Y-14579460D02*
X13171563Y-14569936D01*
X13171563Y-14569936D02*
X13162039Y-14550888D01*
X13162039Y-14550888D02*
X13152515Y-14512793D01*
X13152515Y-14512793D02*
X13152515Y-14465174D01*
X13152515Y-14465174D02*
X13162039Y-14427079D01*
X13162039Y-14427079D02*
X13171563Y-14408031D01*
X13171563Y-14408031D02*
X13181086Y-14398508D01*
X13181086Y-14398508D02*
X13200134Y-14388984D01*
X13352515Y-14569936D02*
X13362039Y-14579460D01*
X13362039Y-14579460D02*
X13352515Y-14588984D01*
X13352515Y-14588984D02*
X13342991Y-14579460D01*
X13342991Y-14579460D02*
X13352515Y-14569936D01*
X13352515Y-14569936D02*
X13352515Y-14588984D01*
X13485848Y-14388984D02*
X13504896Y-14388984D01*
X13504896Y-14388984D02*
X13523944Y-14398508D01*
X13523944Y-14398508D02*
X13533467Y-14408031D01*
X13533467Y-14408031D02*
X13542991Y-14427079D01*
X13542991Y-14427079D02*
X13552515Y-14465174D01*
X13552515Y-14465174D02*
X13552515Y-14512793D01*
X13552515Y-14512793D02*
X13542991Y-14550888D01*
X13542991Y-14550888D02*
X13533467Y-14569936D01*
X13533467Y-14569936D02*
X13523944Y-14579460D01*
X13523944Y-14579460D02*
X13504896Y-14588984D01*
X13504896Y-14588984D02*
X13485848Y-14588984D01*
X13485848Y-14588984D02*
X13466801Y-14579460D01*
X13466801Y-14579460D02*
X13457277Y-14569936D01*
X13457277Y-14569936D02*
X13447753Y-14550888D01*
X13447753Y-14550888D02*
X13438229Y-14512793D01*
X13438229Y-14512793D02*
X13438229Y-14465174D01*
X13438229Y-14465174D02*
X13447753Y-14427079D01*
X13447753Y-14427079D02*
X13457277Y-14408031D01*
X13457277Y-14408031D02*
X13466801Y-14398508D01*
X13466801Y-14398508D02*
X13485848Y-14388984D01*
X13647753Y-14588984D02*
X13685848Y-14588984D01*
X13685848Y-14588984D02*
X13704896Y-14579460D01*
X13704896Y-14579460D02*
X13714420Y-14569936D01*
X13714420Y-14569936D02*
X13733467Y-14541365D01*
X13733467Y-14541365D02*
X13742991Y-14503269D01*
X13742991Y-14503269D02*
X13742991Y-14427079D01*
X13742991Y-14427079D02*
X13733467Y-14408031D01*
X13733467Y-14408031D02*
X13723944Y-14398508D01*
X13723944Y-14398508D02*
X13704896Y-14388984D01*
X13704896Y-14388984D02*
X13666801Y-14388984D01*
X13666801Y-14388984D02*
X13647753Y-14398508D01*
X13647753Y-14398508D02*
X13638229Y-14408031D01*
X13638229Y-14408031D02*
X13628706Y-14427079D01*
X13628706Y-14427079D02*
X13628706Y-14474698D01*
X13628706Y-14474698D02*
X13638229Y-14493746D01*
X13638229Y-14493746D02*
X13647753Y-14503269D01*
X13647753Y-14503269D02*
X13666801Y-14512793D01*
X13666801Y-14512793D02*
X13704896Y-14512793D01*
X13704896Y-14512793D02*
X13723944Y-14503269D01*
X13723944Y-14503269D02*
X13733467Y-14493746D01*
X13733467Y-14493746D02*
X13742991Y-14474698D01*
X13857277Y-14474698D02*
X13838229Y-14465174D01*
X13838229Y-14465174D02*
X13828706Y-14455650D01*
X13828706Y-14455650D02*
X13819182Y-14436603D01*
X13819182Y-14436603D02*
X13819182Y-14427079D01*
X13819182Y-14427079D02*
X13828706Y-14408031D01*
X13828706Y-14408031D02*
X13838229Y-14398508D01*
X13838229Y-14398508D02*
X13857277Y-14388984D01*
X13857277Y-14388984D02*
X13895372Y-14388984D01*
X13895372Y-14388984D02*
X13914420Y-14398508D01*
X13914420Y-14398508D02*
X13923944Y-14408031D01*
X13923944Y-14408031D02*
X13933467Y-14427079D01*
X13933467Y-14427079D02*
X13933467Y-14436603D01*
X13933467Y-14436603D02*
X13923944Y-14455650D01*
X13923944Y-14455650D02*
X13914420Y-14465174D01*
X13914420Y-14465174D02*
X13895372Y-14474698D01*
X13895372Y-14474698D02*
X13857277Y-14474698D01*
X13857277Y-14474698D02*
X13838229Y-14484222D01*
X13838229Y-14484222D02*
X13828706Y-14493746D01*
X13828706Y-14493746D02*
X13819182Y-14512793D01*
X13819182Y-14512793D02*
X13819182Y-14550888D01*
X13819182Y-14550888D02*
X13828706Y-14569936D01*
X13828706Y-14569936D02*
X13838229Y-14579460D01*
X13838229Y-14579460D02*
X13857277Y-14588984D01*
X13857277Y-14588984D02*
X13895372Y-14588984D01*
X13895372Y-14588984D02*
X13914420Y-14579460D01*
X13914420Y-14579460D02*
X13923944Y-14569936D01*
X13923944Y-14569936D02*
X13933467Y-14550888D01*
X13933467Y-14550888D02*
X13933467Y-14512793D01*
X13933467Y-14512793D02*
X13923944Y-14493746D01*
X13923944Y-14493746D02*
X13914420Y-14484222D01*
X13914420Y-14484222D02*
X13895372Y-14474698D01*
X14104896Y-14455650D02*
X14104896Y-14588984D01*
X14057277Y-14379460D02*
X14009658Y-14522317D01*
X14009658Y-14522317D02*
X14133467Y-14522317D01*
X14200134Y-14388984D02*
X14200134Y-14427079D01*
X14276325Y-14388984D02*
X14276325Y-14427079D01*
X14571563Y-14665174D02*
X14562039Y-14655650D01*
X14562039Y-14655650D02*
X14542991Y-14627079D01*
X14542991Y-14627079D02*
X14533468Y-14608031D01*
X14533468Y-14608031D02*
X14523944Y-14579460D01*
X14523944Y-14579460D02*
X14514420Y-14531841D01*
X14514420Y-14531841D02*
X14514420Y-14493746D01*
X14514420Y-14493746D02*
X14523944Y-14446127D01*
X14523944Y-14446127D02*
X14533468Y-14417555D01*
X14533468Y-14417555D02*
X14542991Y-14398508D01*
X14542991Y-14398508D02*
X14562039Y-14369936D01*
X14562039Y-14369936D02*
X14571563Y-14360412D01*
X14733468Y-14455650D02*
X14733468Y-14588984D01*
X14685848Y-14379460D02*
X14638229Y-14522317D01*
X14638229Y-14522317D02*
X14762039Y-14522317D01*
X14990610Y-14588984D02*
X14990610Y-14388984D01*
X15076325Y-14588984D02*
X15076325Y-14484222D01*
X15076325Y-14484222D02*
X15066801Y-14465174D01*
X15066801Y-14465174D02*
X15047753Y-14455650D01*
X15047753Y-14455650D02*
X15019182Y-14455650D01*
X15019182Y-14455650D02*
X15000134Y-14465174D01*
X15000134Y-14465174D02*
X14990610Y-14474698D01*
X15200134Y-14588984D02*
X15181087Y-14579460D01*
X15181087Y-14579460D02*
X15171563Y-14569936D01*
X15171563Y-14569936D02*
X15162039Y-14550888D01*
X15162039Y-14550888D02*
X15162039Y-14493746D01*
X15162039Y-14493746D02*
X15171563Y-14474698D01*
X15171563Y-14474698D02*
X15181087Y-14465174D01*
X15181087Y-14465174D02*
X15200134Y-14455650D01*
X15200134Y-14455650D02*
X15228706Y-14455650D01*
X15228706Y-14455650D02*
X15247753Y-14465174D01*
X15247753Y-14465174D02*
X15257277Y-14474698D01*
X15257277Y-14474698D02*
X15266801Y-14493746D01*
X15266801Y-14493746D02*
X15266801Y-14550888D01*
X15266801Y-14550888D02*
X15257277Y-14569936D01*
X15257277Y-14569936D02*
X15247753Y-14579460D01*
X15247753Y-14579460D02*
X15228706Y-14588984D01*
X15228706Y-14588984D02*
X15200134Y-14588984D01*
X15381087Y-14588984D02*
X15362039Y-14579460D01*
X15362039Y-14579460D02*
X15352515Y-14560412D01*
X15352515Y-14560412D02*
X15352515Y-14388984D01*
X15533468Y-14579460D02*
X15514420Y-14588984D01*
X15514420Y-14588984D02*
X15476325Y-14588984D01*
X15476325Y-14588984D02*
X15457277Y-14579460D01*
X15457277Y-14579460D02*
X15447753Y-14560412D01*
X15447753Y-14560412D02*
X15447753Y-14484222D01*
X15447753Y-14484222D02*
X15457277Y-14465174D01*
X15457277Y-14465174D02*
X15476325Y-14455650D01*
X15476325Y-14455650D02*
X15514420Y-14455650D01*
X15514420Y-14455650D02*
X15533468Y-14465174D01*
X15533468Y-14465174D02*
X15542991Y-14484222D01*
X15542991Y-14484222D02*
X15542991Y-14503269D01*
X15542991Y-14503269D02*
X15447753Y-14522317D01*
X15619182Y-14579460D02*
X15638230Y-14588984D01*
X15638230Y-14588984D02*
X15676325Y-14588984D01*
X15676325Y-14588984D02*
X15695372Y-14579460D01*
X15695372Y-14579460D02*
X15704896Y-14560412D01*
X15704896Y-14560412D02*
X15704896Y-14550888D01*
X15704896Y-14550888D02*
X15695372Y-14531841D01*
X15695372Y-14531841D02*
X15676325Y-14522317D01*
X15676325Y-14522317D02*
X15647753Y-14522317D01*
X15647753Y-14522317D02*
X15628706Y-14512793D01*
X15628706Y-14512793D02*
X15619182Y-14493746D01*
X15619182Y-14493746D02*
X15619182Y-14484222D01*
X15619182Y-14484222D02*
X15628706Y-14465174D01*
X15628706Y-14465174D02*
X15647753Y-14455650D01*
X15647753Y-14455650D02*
X15676325Y-14455650D01*
X15676325Y-14455650D02*
X15695372Y-14465174D01*
X15771563Y-14665174D02*
X15781087Y-14655650D01*
X15781087Y-14655650D02*
X15800134Y-14627079D01*
X15800134Y-14627079D02*
X15809658Y-14608031D01*
X15809658Y-14608031D02*
X15819182Y-14579460D01*
X15819182Y-14579460D02*
X15828706Y-14531841D01*
X15828706Y-14531841D02*
X15828706Y-14493746D01*
X15828706Y-14493746D02*
X15819182Y-14446127D01*
X15819182Y-14446127D02*
X15809658Y-14417555D01*
X15809658Y-14417555D02*
X15800134Y-14398508D01*
X15800134Y-14398508D02*
X15781087Y-14369936D01*
X15781087Y-14369936D02*
X15771563Y-14360412D01*
M02*
