M48
; DRILL file {KiCad 8.0.7} date 2024-12-10T16:25:19+0530
; FORMAT={-:-/ absolute / inch / decimal}
; #@! TF.CreationDate,2024-12-10T16:25:19+05:30
; #@! TF.GenerationSoftware,Kicad,Pcbnew,8.0.7
; #@! TF.FileFunction,Plated,1,2,PTH
FMAT,2
INCH
; #@! TA.AperFunction,Plated,PTH,ComponentDrill
T1C0.0295
; #@! TA.AperFunction,Plated,PTH,ComponentDrill
T2C0.0310
; #@! TA.AperFunction,Plated,PTH,ComponentDrill
T3C0.0315
; #@! TA.AperFunction,Plated,PTH,ComponentDrill
T4C0.0394
; #@! TA.AperFunction,Plated,PTH,ComponentDrill
T5C0.0984
%
G90
G05
T1
X4.8669Y-2.9878
X4.8669Y-3.0378
X4.8669Y-3.0878
X5.3346Y-2.9941
X5.3346Y-3.0441
X5.3346Y-3.0941
X5.3961Y-3.8587
X5.3961Y-3.9087
X5.3961Y-3.9587
X5.7217Y-3.5606
X5.7217Y-3.6106
X5.7217Y-3.6606
X5.7217Y-3.8587
X5.7217Y-3.9087
X5.7217Y-3.9587
X5.75Y-3.0
X5.75Y-3.05
X5.75Y-3.1
X5.75Y-3.2776
X5.75Y-3.3276
X5.75Y-3.3776
X6.3929Y-3.185
X6.3929Y-3.235
X6.3929Y-3.285
X6.3929Y-3.4827
X6.3929Y-3.5327
X6.3929Y-3.5827
X6.8421Y-3.185
X6.8421Y-3.235
X6.8421Y-3.285
T2
X4.5291Y-3.739
X4.5291Y-4.039
X4.6291Y-3.739
X4.6291Y-4.039
X4.7291Y-3.739
X4.7291Y-4.039
X4.8291Y-3.739
X4.8291Y-4.039
X4.9291Y-3.739
X4.9291Y-4.039
X5.0291Y-3.739
X5.0291Y-4.039
X5.0604Y-4.2433
X5.0604Y-4.3433
X5.0604Y-4.4433
X5.0604Y-4.5433
X5.0604Y-4.6433
X5.0604Y-4.7433
X5.0604Y-4.8433
X5.1291Y-3.739
X5.1291Y-4.039
X5.3604Y-4.2433
X5.3604Y-4.3433
X5.3604Y-4.4433
X5.3604Y-4.5433
X5.3604Y-4.6433
X5.3604Y-4.7433
X5.3604Y-4.8433
X5.6449Y-4.2433
X5.6449Y-4.3433
X5.6449Y-4.4433
X5.6449Y-4.5433
X5.6449Y-4.6433
X5.6449Y-4.7433
X5.6449Y-4.8433
X5.9449Y-4.2433
X5.9449Y-4.3433
X5.9449Y-4.4433
X5.9449Y-4.5433
X5.9449Y-4.6433
X5.9449Y-4.7433
X5.9449Y-4.8433
X6.2232Y-4.2433
X6.2232Y-4.3433
X6.2232Y-4.4433
X6.2232Y-4.5433
X6.2232Y-4.6433
X6.2232Y-4.7433
X6.2232Y-4.8433
X6.5232Y-4.2433
X6.5232Y-4.3433
X6.5232Y-4.4433
X6.5232Y-4.5433
X6.5232Y-4.6433
X6.5232Y-4.7433
X6.5232Y-4.8433
X6.8433Y-4.2433
X6.8433Y-4.3433
X6.8433Y-4.4433
X6.8433Y-4.5433
X6.8433Y-4.6433
X6.8433Y-4.7433
X6.8433Y-4.8433
X7.1433Y-4.2433
X7.1433Y-4.3433
X7.1433Y-4.4433
X7.1433Y-4.5433
X7.1433Y-4.6433
X7.1433Y-4.7433
X7.1433Y-4.8433
T3
X4.8181Y-3.2661
X4.8181Y-3.5661
X5.0581Y-3.3051
X5.0581Y-3.5358
X5.3581Y-3.3051
X5.3581Y-3.5358
X6.022Y-3.3516
X6.022Y-3.6516
X6.022Y-3.8512
X6.022Y-3.9496
X6.5358Y-3.7417
X6.5358Y-4.0417
X6.828Y-3.8539
X6.828Y-3.9524
X6.8945Y-2.9846
X7.1583Y-3.265
X7.1583Y-3.365
X7.1583Y-3.465
X7.1583Y-3.565
X7.3807Y-3.9441
X7.3807Y-4.2441
X7.3807Y-4.3748
X7.3807Y-4.6748
X7.3866Y-2.9846
X7.4583Y-3.265
X7.4583Y-3.365
X7.4583Y-3.465
X7.4583Y-3.565
T4
X6.2041Y-2.9992
X6.2524Y-3.7868
X6.2524Y-3.9837
X6.3041Y-2.9992
X6.4041Y-2.9992
X6.5041Y-2.9992
X6.6041Y-2.9992
X6.828Y-3.4709
X6.828Y-3.6677
T5
X4.489Y-2.9528
X4.489Y-4.8594
X7.6102Y-2.9453
X7.6102Y-4.8594
M30
