%TF.GenerationSoftware,KiCad,Pcbnew,8.0.7*%
%TF.CreationDate,2024-12-10T16:24:59+05:30*%
%TF.ProjectId,FINAL PROJECT,46494e41-4c20-4505-924f-4a4543542e6b,rev?*%
%TF.SameCoordinates,Original*%
%TF.FileFunction,Soldermask,Top*%
%TF.FilePolarity,Negative*%
%FSLAX46Y46*%
G04 Gerber Fmt 4.6, Leading zero omitted, Abs format (unit mm)*
G04 Created by KiCad (PCBNEW 8.0.7) date 2024-12-10 16:24:59*
%MOMM*%
%LPD*%
G01*
G04 APERTURE LIST*
%ADD10C,1.600000*%
%ADD11O,1.600000X1.600000*%
%ADD12C,5.000000*%
%ADD13R,1.500000X1.050000*%
%ADD14O,1.500000X1.050000*%
%ADD15C,2.000000*%
%ADD16R,1.700000X1.700000*%
%ADD17O,1.700000X1.700000*%
%ADD18R,1.295400X1.295400*%
%ADD19C,1.295400*%
%ADD20R,1.600000X1.600000*%
G04 APERTURE END LIST*
D10*
%TO.C,C2*%
X173430000Y-100390000D03*
X173430000Y-97890000D03*
%TD*%
%TO.C,R4*%
X166010000Y-95040000D03*
D11*
X166010000Y-102660000D03*
%TD*%
D10*
%TO.C,R2*%
X128475000Y-83950000D03*
D11*
X136095000Y-83950000D03*
%TD*%
D12*
%TO.C,H3*%
X114020000Y-123430000D03*
%TD*%
D13*
%TO.C,Q5*%
X146050000Y-85790000D03*
D14*
X146050000Y-84520000D03*
X146050000Y-83250000D03*
%TD*%
D13*
%TO.C,Q9*%
X162380000Y-83440000D03*
D14*
X162380000Y-82170000D03*
X162380000Y-80900000D03*
%TD*%
D10*
%TO.C,R7*%
X152960000Y-85130000D03*
D11*
X152960000Y-92750000D03*
%TD*%
D13*
%TO.C,Q6*%
X145330000Y-90440000D03*
D14*
X145330000Y-91710000D03*
X145330000Y-92980000D03*
%TD*%
D12*
%TO.C,H2*%
X193300000Y-74810000D03*
%TD*%
D15*
%TO.C,C4*%
X158810000Y-96185000D03*
X158810000Y-101185000D03*
%TD*%
D10*
%TO.C,R5*%
X187470000Y-100180000D03*
D11*
X187470000Y-107800000D03*
%TD*%
D16*
%TO.C,J1*%
X157585000Y-76180000D03*
D17*
X160125000Y-76180000D03*
X162665000Y-76180000D03*
X165205000Y-76180000D03*
X167745000Y-76180000D03*
%TD*%
D10*
%TO.C,R6*%
X187470000Y-111120000D03*
D11*
X187470000Y-118740000D03*
%TD*%
D12*
%TO.C,H1*%
X114020000Y-75000000D03*
%TD*%
D13*
%TO.C,Q8*%
X162380000Y-91000000D03*
D14*
X162380000Y-89730000D03*
X162380000Y-88460000D03*
%TD*%
D10*
%TO.C,R1*%
X122380000Y-82960000D03*
D11*
X122380000Y-90580000D03*
%TD*%
D10*
%TO.C,C3*%
X152960000Y-97820000D03*
X152960000Y-100320000D03*
%TD*%
D13*
%TO.C,Q10*%
X173790000Y-83440000D03*
D14*
X173790000Y-82170000D03*
X173790000Y-80900000D03*
%TD*%
D15*
%TO.C,C1*%
X173430000Y-88160000D03*
X173430000Y-93160000D03*
%TD*%
D18*
%TO.C,U4*%
X158070000Y-107780000D03*
D19*
X158070000Y-110320000D03*
X158070000Y-112860000D03*
X158070000Y-115400000D03*
X158070000Y-117940000D03*
X158070000Y-120480000D03*
X158070000Y-123020000D03*
X165690000Y-123020000D03*
X165690000Y-120480000D03*
X165690000Y-117940000D03*
X165690000Y-115400000D03*
X165690000Y-112860000D03*
X165690000Y-110320000D03*
X165690000Y-107780000D03*
%TD*%
D13*
%TO.C,Q3*%
X137060000Y-98010000D03*
D14*
X137060000Y-99280000D03*
X137060000Y-100550000D03*
%TD*%
D18*
%TO.C,U5*%
X173820000Y-107780000D03*
D19*
X173820000Y-110320000D03*
X173820000Y-112860000D03*
X173820000Y-115400000D03*
X173820000Y-117940000D03*
X173820000Y-120480000D03*
X173820000Y-123020000D03*
X181440000Y-123020000D03*
X181440000Y-120480000D03*
X181440000Y-117940000D03*
X181440000Y-115400000D03*
X181440000Y-112860000D03*
X181440000Y-110320000D03*
X181440000Y-107780000D03*
%TD*%
D10*
%TO.C,C5*%
X175120000Y-75810000D03*
D11*
X187620000Y-75810000D03*
%TD*%
D18*
%TO.C,U3*%
X143380000Y-107780000D03*
D19*
X143380000Y-110320000D03*
X143380000Y-112860000D03*
X143380000Y-115400000D03*
X143380000Y-117940000D03*
X143380000Y-120480000D03*
X143380000Y-123020000D03*
X151000000Y-123020000D03*
X151000000Y-120480000D03*
X151000000Y-117940000D03*
X151000000Y-115400000D03*
X151000000Y-112860000D03*
X151000000Y-110320000D03*
X151000000Y-107780000D03*
%TD*%
D18*
%TO.C,U1*%
X136155000Y-123020000D03*
D19*
X136155000Y-120480000D03*
X136155000Y-117940000D03*
X136155000Y-115400000D03*
X136155000Y-112860000D03*
X136155000Y-110320000D03*
X136155000Y-107780000D03*
X128535000Y-107780000D03*
X128535000Y-110320000D03*
X128535000Y-112860000D03*
X128535000Y-115400000D03*
X128535000Y-117940000D03*
X128535000Y-120480000D03*
X128535000Y-123020000D03*
%TD*%
D13*
%TO.C,Q4*%
X146050000Y-78740000D03*
D14*
X146050000Y-77470000D03*
X146050000Y-76200000D03*
%TD*%
D10*
%TO.C,R3*%
X128475000Y-89810000D03*
D11*
X136095000Y-89810000D03*
%TD*%
D12*
%TO.C,H4*%
X193300000Y-123430000D03*
%TD*%
D13*
%TO.C,Q1*%
X123620000Y-78430000D03*
D14*
X123620000Y-77160000D03*
X123620000Y-75890000D03*
%TD*%
D13*
%TO.C,Q7*%
X145330000Y-98010000D03*
D14*
X145330000Y-99280000D03*
X145330000Y-100550000D03*
%TD*%
D18*
%TO.C,U2*%
X130280000Y-94970000D03*
D19*
X127740000Y-94970000D03*
X125200000Y-94970000D03*
X122660000Y-94970000D03*
X120120000Y-94970000D03*
X117580000Y-94970000D03*
X115040000Y-94970000D03*
X115040000Y-102590000D03*
X117580000Y-102590000D03*
X120120000Y-102590000D03*
X122660000Y-102590000D03*
X125200000Y-102590000D03*
X127740000Y-102590000D03*
X130280000Y-102590000D03*
%TD*%
D13*
%TO.C,Q2*%
X135500000Y-78590000D03*
D14*
X135500000Y-77320000D03*
X135500000Y-76050000D03*
%TD*%
D20*
%TO.C,U6*%
X181820000Y-82930000D03*
D11*
X181820000Y-85470000D03*
X181820000Y-88010000D03*
X181820000Y-90550000D03*
X189440000Y-90550000D03*
X189440000Y-88010000D03*
X189440000Y-85470000D03*
X189440000Y-82930000D03*
%TD*%
M02*
