%TF.GenerationSoftware,KiCad,Pcbnew,8.0.7*%
%TF.CreationDate,2024-12-10T16:25:16+05:30*%
%TF.ProjectId,FINAL PROJECT,46494e41-4c20-4505-924f-4a4543542e6b,rev?*%
%TF.SameCoordinates,Original*%
%TF.FileFunction,Drillmap*%
%TF.FilePolarity,Positive*%
%FSLAX45Y45*%
G04 Gerber Fmt 4.5, Leading zero omitted, Abs format (unit mm)*
G04 Created by KiCad (PCBNEW 8.0.7) date 2024-12-10 16:25:16*
%MOMM*%
%LPD*%
G01*
G04 APERTURE LIST*
%ADD10C,0.050000*%
%ADD11C,0.200000*%
G04 APERTURE END LIST*
D10*
X19715000Y-12799000D02*
X10999000Y-12799000D01*
X10999000Y-6988000D02*
X19715000Y-6980000D01*
X19715000Y-12799000D02*
X19715000Y-6980000D01*
X10999000Y-6988000D02*
X10999000Y-12799000D01*
D11*
X11257277Y-13112984D02*
X11257277Y-12912984D01*
X11257277Y-12912984D02*
X11304896Y-12912984D01*
X11304896Y-12912984D02*
X11333467Y-12922508D01*
X11333467Y-12922508D02*
X11352515Y-12941555D01*
X11352515Y-12941555D02*
X11362039Y-12960603D01*
X11362039Y-12960603D02*
X11371562Y-12998698D01*
X11371562Y-12998698D02*
X11371562Y-13027269D01*
X11371562Y-13027269D02*
X11362039Y-13065365D01*
X11362039Y-13065365D02*
X11352515Y-13084412D01*
X11352515Y-13084412D02*
X11333467Y-13103460D01*
X11333467Y-13103460D02*
X11304896Y-13112984D01*
X11304896Y-13112984D02*
X11257277Y-13112984D01*
X11457277Y-13112984D02*
X11457277Y-12979650D01*
X11457277Y-13017746D02*
X11466801Y-12998698D01*
X11466801Y-12998698D02*
X11476324Y-12989174D01*
X11476324Y-12989174D02*
X11495372Y-12979650D01*
X11495372Y-12979650D02*
X11514420Y-12979650D01*
X11581086Y-13112984D02*
X11581086Y-12979650D01*
X11581086Y-12912984D02*
X11571562Y-12922508D01*
X11571562Y-12922508D02*
X11581086Y-12932031D01*
X11581086Y-12932031D02*
X11590610Y-12922508D01*
X11590610Y-12922508D02*
X11581086Y-12912984D01*
X11581086Y-12912984D02*
X11581086Y-12932031D01*
X11704896Y-13112984D02*
X11685848Y-13103460D01*
X11685848Y-13103460D02*
X11676324Y-13084412D01*
X11676324Y-13084412D02*
X11676324Y-12912984D01*
X11809658Y-13112984D02*
X11790610Y-13103460D01*
X11790610Y-13103460D02*
X11781086Y-13084412D01*
X11781086Y-13084412D02*
X11781086Y-12912984D01*
X12038229Y-13112984D02*
X12038229Y-12912984D01*
X12038229Y-12912984D02*
X12104896Y-13055841D01*
X12104896Y-13055841D02*
X12171562Y-12912984D01*
X12171562Y-12912984D02*
X12171562Y-13112984D01*
X12352515Y-13112984D02*
X12352515Y-13008222D01*
X12352515Y-13008222D02*
X12342991Y-12989174D01*
X12342991Y-12989174D02*
X12323943Y-12979650D01*
X12323943Y-12979650D02*
X12285848Y-12979650D01*
X12285848Y-12979650D02*
X12266801Y-12989174D01*
X12352515Y-13103460D02*
X12333467Y-13112984D01*
X12333467Y-13112984D02*
X12285848Y-13112984D01*
X12285848Y-13112984D02*
X12266801Y-13103460D01*
X12266801Y-13103460D02*
X12257277Y-13084412D01*
X12257277Y-13084412D02*
X12257277Y-13065365D01*
X12257277Y-13065365D02*
X12266801Y-13046317D01*
X12266801Y-13046317D02*
X12285848Y-13036793D01*
X12285848Y-13036793D02*
X12333467Y-13036793D01*
X12333467Y-13036793D02*
X12352515Y-13027269D01*
X12447753Y-12979650D02*
X12447753Y-13179650D01*
X12447753Y-12989174D02*
X12466801Y-12979650D01*
X12466801Y-12979650D02*
X12504896Y-12979650D01*
X12504896Y-12979650D02*
X12523943Y-12989174D01*
X12523943Y-12989174D02*
X12533467Y-12998698D01*
X12533467Y-12998698D02*
X12542991Y-13017746D01*
X12542991Y-13017746D02*
X12542991Y-13074888D01*
X12542991Y-13074888D02*
X12533467Y-13093936D01*
X12533467Y-13093936D02*
X12523943Y-13103460D01*
X12523943Y-13103460D02*
X12504896Y-13112984D01*
X12504896Y-13112984D02*
X12466801Y-13112984D01*
X12466801Y-13112984D02*
X12447753Y-13103460D01*
X12628705Y-13093936D02*
X12638229Y-13103460D01*
X12638229Y-13103460D02*
X12628705Y-13112984D01*
X12628705Y-13112984D02*
X12619182Y-13103460D01*
X12619182Y-13103460D02*
X12628705Y-13093936D01*
X12628705Y-13093936D02*
X12628705Y-13112984D01*
X12628705Y-12989174D02*
X12638229Y-12998698D01*
X12638229Y-12998698D02*
X12628705Y-13008222D01*
X12628705Y-13008222D02*
X12619182Y-12998698D01*
X12619182Y-12998698D02*
X12628705Y-12989174D01*
X12628705Y-12989174D02*
X12628705Y-13008222D01*
M02*
